<?xml version="1.0" encoding="UTF-8"?>
<svg version="1.1" xmlns="http://www.w3.org/2000/svg" width="32" height="32">
<path d="M0 0 C0.33 1.65 0.66 3.3 1 5 C2.134375 4.979375 3.26875 4.95875 4.4375 4.9375 C8 5 8 5 9 6 C9.51116704 13.17137285 9.2353997 20.92558853 8 28 C5.41276011 29.29361994 3.51886997 29.12948949 0.625 29.1328125 C-0.44234375 29.13410156 -1.5096875 29.13539062 -2.609375 29.13671875 C-3.72828125 29.13285156 -4.8471875 29.12898438 -6 29.125 C-7.11890625 29.12886719 -8.2378125 29.13273437 -9.390625 29.13671875 C-10.99164062 29.13478516 -10.99164062 29.13478516 -12.625 29.1328125 C-13.60726563 29.13168457 -14.58953125 29.13055664 -15.6015625 29.12939453 C-18 29 -18 29 -20 28 C-21.2353997 20.92558853 -21.51116704 13.17137285 -21 6 C-20 5 -20 5 -16.4375 4.9375 C-15.303125 4.958125 -14.16875 4.97875 -13 5 C-12.67 3.35 -12.34 1.7 -12 0 C-7.91556885 -1.53166168 -4.20544343 -0.63081652 0 0 Z M-9 4 C-9 4.33 -9 4.66 -9 5 C-7.02 5 -5.04 5 -3 5 C-3 4.67 -3 4.34 -3 4 C-4.98 4 -6.96 4 -9 4 Z " fill="#AD6227" transform="translate(22,2)"/>
<path d="M0 0 C8.58 0 17.16 0 26 0 C26 2.64 26 5.28 26 8 C25 9 25 9 21.5625 9.4375 C17.95941003 9.64847551 17.95941003 9.64847551 16 12 C13 12.25 13 12.25 10 12 C9.34 11.34 8.68 10.68 8 10 C5.67182036 9.63239269 3.3381615 9.29758419 1 9 C0.67 8.67 0.34 8.34 0 8 C0 5.36 0 2.72 0 0 Z " fill="#CC823D" transform="translate(3,9)"/>
<path d="M0 0 C0.33 1.65 0.66 3.3 1 5 C2.134375 4.979375 3.26875 4.95875 4.4375 4.9375 C8 5 8 5 9 6 C9.51116704 13.17137285 9.2353997 20.92558853 8 28 C5.41276011 29.29361994 3.51886997 29.12948949 0.625 29.1328125 C-0.44234375 29.13410156 -1.5096875 29.13539062 -2.609375 29.13671875 C-3.72828125 29.13285156 -4.8471875 29.12898438 -6 29.125 C-7.11890625 29.12886719 -8.2378125 29.13273437 -9.390625 29.13671875 C-10.99164062 29.13478516 -10.99164062 29.13478516 -12.625 29.1328125 C-13.60726563 29.13168457 -14.58953125 29.13055664 -15.6015625 29.12939453 C-18 29 -18 29 -20 28 C-21.2353997 20.92558853 -21.51116704 13.17137285 -21 6 C-20 5 -20 5 -16.4375 4.9375 C-15.303125 4.958125 -14.16875 4.97875 -13 5 C-12.67 3.35 -12.34 1.7 -12 0 C-7.91556885 -1.53166168 -4.20544343 -0.63081652 0 0 Z M-9 4 C-9 4.33 -9 4.66 -9 5 C-7.02 5 -5.04 5 -3 5 C-3 4.67 -3 4.34 -3 4 C-4.98 4 -6.96 4 -9 4 Z M-19 7 C-19 13.6 -19 20.2 -19 27 C-10.42 27 -1.84 27 7 27 C7 20.4 7 13.8 7 7 C-1.58 7 -10.16 7 -19 7 Z " fill="#1F140B" transform="translate(22,2)"/>
<path d="M0 0 C7.75 0.75 7.75 0.75 10 3 C13 3.33333333 13 3.33333333 16 3 C16.66 2.34 17.32 1.68 18 1 C20.65537372 0.43479997 23.29144713 0.26211802 26 0 C26 3.96 26 7.92 26 12 C25.67 12 25.34 12 25 12 C25 8.7 25 5.4 25 2 C24.34 2 23.68 2 23 2 C22.34 3.65 21.68 5.3 21 7 C20.40832031 6.9278125 19.81664063 6.855625 19.20703125 6.78125 C15.11738278 6.30089977 11.1261469 5.86689849 7 6 C7 4.68 7 3.36 7 2 C6.34 2 5.68 2 5 2 C4.67 3.32 4.34 4.64 4 6 C3.67 4.68 3.34 3.36 3 2 C2.34 2 1.68 2 1 2 C1 5.3 1 8.6 1 12 C0.67 12 0.34 12 0 12 C0 8.04 0 4.08 0 0 Z " fill="#7B4E1E" transform="translate(3,17)"/>
<path d="M0 0 C7.75 0.75 7.75 0.75 10 3 C11.98821313 3.39764263 13.98944339 3.73775349 16 4 C12.86501708 5.85776765 10.62528568 6.20140476 7 6 C7 4.68 7 3.36 7 2 C6.34 2 5.68 2 5 2 C4.67 3.32 4.34 4.64 4 6 C3.67 4.68 3.34 3.36 3 2 C2.34 2 1.68 2 1 2 C1 5.3 1 8.6 1 12 C0.67 12 0.34 12 0 12 C0 8.04 0 4.08 0 0 Z " fill="#6E441C" transform="translate(3,17)"/>
<path d="M0 0 C3.3 0 6.6 0 10 0 C10.33 1.65 10.66 3.3 11 5 C10.34 5 9.68 5 9 5 C9 4.01 9 3.02 9 2 C6.36 2 3.72 2 1 2 C1 2.99 1 3.98 1 5 C0.34 5 -0.32 5 -1 5 C-0.67 3.35 -0.34 1.7 0 0 Z " fill="#66666B" transform="translate(11,3)"/>
<path d="M0 0 C2.64 0 5.28 0 8 0 C8 0.33 8 0.66 8 1 C6.02 1.33 4.04 1.66 2 2 C1.67 2.99 1.34 3.98 1 5 C0.34 5 -0.32 5 -1 5 C-0.67 3.35 -0.34 1.7 0 0 Z " fill="#7A7980" transform="translate(11,3)"/>
</svg>
