<?xml version="1.0" encoding="UTF-8"?>
<svg version="1.1" xmlns="http://www.w3.org/2000/svg" width="512" height="512">
<path d="M0 0 C1.04285156 -0.020625 2.08570313 -0.04125 3.16015625 -0.0625 C17.92571772 -0.13623564 30.16020876 5.45049047 40.84765625 15.59765625 C48.83503042 23.98007829 55.20099892 33.23959978 61.10377502 43.17300415 C64.19338092 48.36813538 67.42788283 53.43185086 70.80859375 58.44140625 C71.86748134 60.02030991 72.92580525 61.59959171 73.98364258 63.17919922 C74.53597565 64.00361511 75.08830872 64.82803101 75.65737915 65.6774292 C78.63732695 70.14065325 81.58799711 74.62311616 84.5390625 79.10546875 C85.14905594 80.0316098 85.75904938 80.95775085 86.38752747 81.91195679 C88.25875952 84.75353624 90.12945537 87.59546799 92 90.4375 C102.25280343 106.01788383 102.25280343 106.01788383 112.57803345 121.55027771 C117.92146721 129.5540579 123.20124492 137.59995915 128.49176025 145.63876343 C137.12828083 158.76036868 145.76729627 171.87965117 154.5 184.9375 C161.77712995 195.82276999 168.98927302 206.74994929 176.1875 217.6875 C176.74864502 218.54008392 177.30979004 219.39266785 177.88793945 220.27108765 C182.05110731 226.59685605 186.21305841 232.92342476 190.375 239.25 C195.09543482 246.42551825 199.81692937 253.60033601 204.5406189 260.77371216 C205.84383401 262.75328789 207.14659095 264.73316533 208.44888306 266.71334839 C210.25911977 269.46585705 212.07079813 272.21741139 213.8828125 274.96875 C214.42625809 275.79584976 214.96970367 276.62294952 215.52961731 277.47511292 C216.02402817 278.22518112 216.51843903 278.97524933 217.02783203 279.74804688 C217.45935577 280.40381714 217.89087952 281.0595874 218.33547974 281.73522949 C219.29185732 283.22783076 219.29185732 283.22783076 220.375 284.25 C220.37831015 283.07939026 220.38162029 281.90878052 220.38503075 280.70269775 C220.46420693 252.85679994 220.55348625 225.01094852 220.65505161 197.16512311 C220.66756909 193.73085056 220.68000208 190.29657772 220.69238281 186.86230469 C220.69484881 186.17866026 220.6973148 185.49501583 220.69985552 184.7906549 C220.73947888 173.75018336 220.7722721 162.70970171 220.80249982 151.6692009 C220.833716 140.32376808 220.87251233 128.97838266 220.91779006 117.63299561 C220.94295687 111.26758028 220.96476681 104.90219464 220.97834396 98.53674316 C220.99125382 92.53512737 221.01340295 86.53361393 221.04238319 80.5320549 C221.05138965 78.33925871 221.05713282 76.14644606 221.05921364 73.95363235 C221.10944574 29.02502138 221.10944574 29.02502138 236.375 12.25 C247.61029791 1.45214196 260.89173941 -0.31420548 275.72265625 -0.08984375 C286.92366974 0.35938977 296.24590435 4.50800415 304.375 12.25 C304.92542969 12.76046875 305.47585938 13.2709375 306.04296875 13.796875 C318.4312292 26.66283187 319.84212203 45.89951662 319.75595093 62.76499939 C319.75941733 64.26797291 319.76418843 65.77094387 319.77013266 67.27390963 C319.78253769 71.35937326 319.77652075 75.44462391 319.76717401 79.53008783 C319.76034026 83.95349838 319.77088606 88.37687423 319.77911377 92.80027771 C319.79240779 101.44841679 319.78959266 110.09647747 319.78087585 118.74461954 C319.77408215 125.77788379 319.77318985 132.81112618 319.7764473 139.84439278 C319.776907 140.84797235 319.77736669 141.85155193 319.77784032 142.88554301 C319.77879957 144.9247363 319.77977221 146.96392959 319.7807581 149.00312287 C319.78929942 168.09562529 319.77949786 187.18808439 319.763357 206.28057969 C319.74995702 222.63686322 319.75228172 238.99308286 319.76611328 255.34936523 C319.7821949 274.37513532 319.78847341 293.4008675 319.77927649 312.42664343 C319.77832091 314.45835943 319.7773778 316.49007544 319.7764473 318.52179146 C319.77598447 319.52125139 319.77552164 320.52071131 319.77504479 321.55045791 C319.77246249 328.56880862 319.77680951 335.58713514 319.78388596 342.6054821 C319.79232998 351.1678453 319.78996018 359.73012608 319.77404372 368.29247992 C319.76619958 372.65501146 319.76300294 377.01740593 319.77299118 381.37993622 C319.78201944 385.3839686 319.77687354 389.38773863 319.76105852 393.39174766 C319.75774472 394.82966068 319.75932668 396.26759651 319.76668589 397.70549452 C319.85309232 416.01211201 317.00742163 434.6962693 304.6328125 449 C297.55028224 456.05802323 289.96138182 460.49993585 280.375 463.25 C279.78195068 463.4250708 279.18890137 463.6001416 278.57788086 463.78051758 C273.7778438 464.80351118 268.76252781 464.47813187 263.875 464.5 C262.75351562 464.520625 261.63203125 464.54125 260.4765625 464.5625 C241.57558093 464.64980246 226.93544374 457.21585568 213.375 444.25 C210.11383606 440.76105459 207.2273596 437.07816683 204.375 433.25 C203.92640625 432.65316406 203.4778125 432.05632812 203.015625 431.44140625 C190.06635163 414.14089855 178.04684708 396.00630829 166.71142578 377.61181641 C163.69136964 372.71679242 160.53055358 367.92901572 157.32299805 363.15527344 C153.89686439 358.05069701 150.53299613 352.90774497 147.1875 347.75 C146.64359619 346.91154541 146.09969238 346.07309082 145.53930664 345.20922852 C144.40425518 343.45933694 143.26924632 341.70941773 142.13427734 339.95947266 C139.09647925 335.2809432 136.04814607 330.60929161 133 325.9375 C132.37391846 324.97779297 131.74783691 324.01808594 131.1027832 323.02929688 C129.82931106 321.0772807 128.55579205 319.12529511 127.28222656 317.17333984 C124.14583992 312.36598019 121.01046604 307.55796012 117.875 302.75 C116.62500497 300.83333009 115.37500496 298.91666343 114.125 297 C76.625 239.5 76.625 239.5 74.7487793 236.62304688 C73.50294767 234.71282582 72.25701721 232.80266921 71.01098633 230.89257812 C67.82138295 226.00282644 64.63368092 221.11185173 61.44921875 216.21875 C60.79824219 215.21908203 60.14726562 214.21941406 59.4765625 213.18945312 C58.25845531 211.31878851 57.04094137 209.44773735 55.82421875 207.57617188 C52.29633548 202.16006927 48.73010662 196.77073021 45.1418457 191.39453125 C44.6817234 190.70476196 44.2216011 190.01499268 43.74753571 189.30432129 C42.62355201 187.61941751 41.49930333 185.93469051 40.375 184.25 C40.37168985 185.41214586 40.36837971 186.57429173 40.36496925 187.77165413 C40.28582297 215.40535732 40.19655472 243.0390129 40.09494839 270.67264301 C40.08243065 274.07945054 40.0699977 277.48625838 40.05761719 280.89306641 C40.0539182 281.91034814 40.0539182 281.91034814 40.05014448 282.94818102 C40.01050226 293.90593871 39.9777173 304.86370661 39.94750018 315.82149388 C39.91630327 327.07877489 39.87751423 338.33601275 39.83220994 349.59324729 C39.80702399 355.91053232 39.78521952 362.22778723 39.77165604 368.5451088 C39.75876378 374.49911403 39.73663291 380.45301555 39.70761681 386.40696335 C39.69859679 388.58447392 39.69286394 390.76200116 39.69078636 392.93952942 C39.66714134 413.9700585 39.23667308 434.72209956 24.375 451.25 C12.66754959 462.57078232 -0.15010037 464.66152123 -15.71875 464.46484375 C-21.09518901 464.3016449 -25.72534464 463.53040034 -30.625 461.25 C-31.76775391 460.72212891 -31.76775391 460.72212891 -32.93359375 460.18359375 C-44.93043166 454.05367489 -52.23021029 445.15719869 -56.4375 432.5 C-58.45380612 426.15744482 -59.74841871 420.61644564 -59.75922108 413.95346546 C-59.76367892 412.67620462 -59.76813676 411.39894378 -59.77272969 410.08297807 C-59.7726404 408.66768951 -59.77245056 407.25240096 -59.77217102 405.83711243 C-59.77547149 404.33182292 -59.77919744 402.8265343 -59.7833125 401.3212468 C-59.7933205 397.18291567 -59.79704739 393.04459903 -59.79970181 388.90625751 C-59.80360862 384.44310382 -59.81318694 379.97996157 -59.82191467 375.51681519 C-59.84167209 364.73488418 -59.85174599 353.95295225 -59.86064246 343.17100766 C-59.86502798 338.08924138 -59.87039424 333.00747614 -59.87563133 327.92571068 C-59.89264558 311.02360532 -59.90713742 294.12150061 -59.91438007 277.21938801 C-59.91628988 272.83367728 -59.91821022 268.44796656 -59.92016602 264.06225586 C-59.92064976 262.97224933 -59.9211335 261.88224281 -59.9216319 260.75920578 C-59.92992341 243.12126731 -59.95524458 225.48339685 -59.98774669 207.84548805 C-60.02086997 189.7221026 -60.03883373 171.59875164 -60.04202431 153.47533578 C-60.04418492 143.30592043 -60.05286716 133.13660416 -60.07848549 122.9672184 C-60.10026483 114.30182779 -60.10820762 105.63656031 -60.09851871 96.97114543 C-60.09399441 92.55572846 -60.09575015 88.14056515 -60.11528015 83.72518349 C-60.30013138 39.40599204 -60.30013138 39.40599204 -48.625 23.25 C-48.11324219 22.52683594 -47.60148437 21.80367187 -47.07421875 21.05859375 C-35.62343165 6.53910936 -17.91787583 0.08666445 0 0 Z " fill="#2FBAF3" transform="translate(123.625,31.75)"/>
<path d="M0 0 C1.04285156 -0.020625 2.08570313 -0.04125 3.16015625 -0.0625 C17.92571772 -0.13623564 30.16020876 5.45049047 40.84765625 15.59765625 C48.83503042 23.98007829 55.20099892 33.23959978 61.10377502 43.17300415 C64.19338092 48.36813538 67.42788283 53.43185086 70.80859375 58.44140625 C71.86748134 60.02030991 72.92580525 61.59959171 73.98364258 63.17919922 C74.53597565 64.00361511 75.08830872 64.82803101 75.65737915 65.6774292 C78.63732695 70.14065325 81.58799711 74.62311616 84.5390625 79.10546875 C85.14905594 80.0316098 85.75904938 80.95775085 86.38752747 81.91195679 C88.25875952 84.75353624 90.12945537 87.59546799 92 90.4375 C102.25280343 106.01788383 102.25280343 106.01788383 112.57803345 121.55027771 C117.92146721 129.5540579 123.20124492 137.59995915 128.49176025 145.63876343 C137.12828083 158.76036868 145.76729627 171.87965117 154.5 184.9375 C161.77712995 195.82276999 168.98927302 206.74994929 176.1875 217.6875 C176.74864502 218.54008392 177.30979004 219.39266785 177.88793945 220.27108765 C182.05110731 226.59685605 186.21305841 232.92342476 190.375 239.25 C195.09543482 246.42551825 199.81692937 253.60033601 204.5406189 260.77371216 C205.84383401 262.75328789 207.14659095 264.73316533 208.44888306 266.71334839 C210.25911977 269.46585705 212.07079813 272.21741139 213.8828125 274.96875 C214.42625809 275.79584976 214.96970367 276.62294952 215.52961731 277.47511292 C216.02402817 278.22518112 216.51843903 278.97524933 217.02783203 279.74804688 C217.45935577 280.40381714 217.89087952 281.0595874 218.33547974 281.73522949 C219.29185732 283.22783076 219.29185732 283.22783076 220.375 284.25 C220.37831015 283.07939026 220.38162029 281.90878052 220.38503075 280.70269775 C220.46420693 252.85679994 220.55348625 225.01094852 220.65505161 197.16512311 C220.66756909 193.73085056 220.68000208 190.29657772 220.69238281 186.86230469 C220.69484881 186.17866026 220.6973148 185.49501583 220.69985552 184.7906549 C220.73947888 173.75018336 220.7722721 162.70970171 220.80249982 151.6692009 C220.833716 140.32376808 220.87251233 128.97838266 220.91779006 117.63299561 C220.94295687 111.26758028 220.96476681 104.90219464 220.97834396 98.53674316 C220.99125382 92.53512737 221.01340295 86.53361393 221.04238319 80.5320549 C221.05138965 78.33925871 221.05713282 76.14644606 221.05921364 73.95363235 C221.10944574 29.02502138 221.10944574 29.02502138 236.375 12.25 C247.61029791 1.45214196 260.89173941 -0.31420548 275.72265625 -0.08984375 C286.92366974 0.35938977 296.24590435 4.50800415 304.375 12.25 C304.92542969 12.76046875 305.47585938 13.2709375 306.04296875 13.796875 C318.4312292 26.66283187 319.84212203 45.89951662 319.75595093 62.76499939 C319.75941733 64.26797291 319.76418843 65.77094387 319.77013266 67.27390963 C319.78253769 71.35937326 319.77652075 75.44462391 319.76717401 79.53008783 C319.76034026 83.95349838 319.77088606 88.37687423 319.77911377 92.80027771 C319.79240779 101.44841679 319.78959266 110.09647747 319.78087585 118.74461954 C319.77408215 125.77788379 319.77318985 132.81112618 319.7764473 139.84439278 C319.776907 140.84797235 319.77736669 141.85155193 319.77784032 142.88554301 C319.77879957 144.9247363 319.77977221 146.96392959 319.7807581 149.00312287 C319.78929942 168.09562529 319.77949786 187.18808439 319.763357 206.28057969 C319.74995702 222.63686322 319.75228172 238.99308286 319.76611328 255.34936523 C319.7821949 274.37513532 319.78847341 293.4008675 319.77927649 312.42664343 C319.77832091 314.45835943 319.7773778 316.49007544 319.7764473 318.52179146 C319.77598447 319.52125139 319.77552164 320.52071131 319.77504479 321.55045791 C319.77246249 328.56880862 319.77680951 335.58713514 319.78388596 342.6054821 C319.79232998 351.1678453 319.78996018 359.73012608 319.77404372 368.29247992 C319.76619958 372.65501146 319.76300294 377.01740593 319.77299118 381.37993622 C319.78201944 385.3839686 319.77687354 389.38773863 319.76105852 393.39174766 C319.75774472 394.82966068 319.75932668 396.26759651 319.76668589 397.70549452 C319.85309232 416.01211201 317.00742163 434.6962693 304.6328125 449 C297.55028224 456.05802323 289.96138182 460.49993585 280.375 463.25 C279.78195068 463.4250708 279.18890137 463.6001416 278.57788086 463.78051758 C273.7778438 464.80351118 268.76252781 464.47813187 263.875 464.5 C262.75351562 464.520625 261.63203125 464.54125 260.4765625 464.5625 C241.57558093 464.64980246 226.93544374 457.21585568 213.375 444.25 C210.11383606 440.76105459 207.2273596 437.07816683 204.375 433.25 C203.92640625 432.65316406 203.4778125 432.05632812 203.015625 431.44140625 C190.06635163 414.14089855 178.04684708 396.00630829 166.71142578 377.61181641 C163.69136964 372.71679242 160.53055358 367.92901572 157.32299805 363.15527344 C153.89686439 358.05069701 150.53299613 352.90774497 147.1875 347.75 C146.64359619 346.91154541 146.09969238 346.07309082 145.53930664 345.20922852 C144.40425518 343.45933694 143.26924632 341.70941773 142.13427734 339.95947266 C139.09647925 335.2809432 136.04814607 330.60929161 133 325.9375 C132.37391846 324.97779297 131.74783691 324.01808594 131.1027832 323.02929688 C129.82931106 321.0772807 128.55579205 319.12529511 127.28222656 317.17333984 C124.14583992 312.36598019 121.01046604 307.55796012 117.875 302.75 C116.62500497 300.83333009 115.37500496 298.91666343 114.125 297 C76.625 239.5 76.625 239.5 74.7487793 236.62304688 C73.50294767 234.71282582 72.25701721 232.80266921 71.01098633 230.89257812 C67.82138295 226.00282644 64.63368092 221.11185173 61.44921875 216.21875 C60.79824219 215.21908203 60.14726562 214.21941406 59.4765625 213.18945312 C58.25845531 211.31878851 57.04094137 209.44773735 55.82421875 207.57617188 C52.29633548 202.16006927 48.73010662 196.77073021 45.1418457 191.39453125 C44.6817234 190.70476196 44.2216011 190.01499268 43.74753571 189.30432129 C42.62355201 187.61941751 41.49930333 185.93469051 40.375 184.25 C40.37168985 185.41214586 40.36837971 186.57429173 40.36496925 187.77165413 C40.28582297 215.40535732 40.19655472 243.0390129 40.09494839 270.67264301 C40.08243065 274.07945054 40.0699977 277.48625838 40.05761719 280.89306641 C40.0539182 281.91034814 40.0539182 281.91034814 40.05014448 282.94818102 C40.01050226 293.90593871 39.9777173 304.86370661 39.94750018 315.82149388 C39.91630327 327.07877489 39.87751423 338.33601275 39.83220994 349.59324729 C39.80702399 355.91053232 39.78521952 362.22778723 39.77165604 368.5451088 C39.75876378 374.49911403 39.73663291 380.45301555 39.70761681 386.40696335 C39.69859679 388.58447392 39.69286394 390.76200116 39.69078636 392.93952942 C39.66714134 413.9700585 39.23667308 434.72209956 24.375 451.25 C12.66754959 462.57078232 -0.15010037 464.66152123 -15.71875 464.46484375 C-21.09518901 464.3016449 -25.72534464 463.53040034 -30.625 461.25 C-31.76775391 460.72212891 -31.76775391 460.72212891 -32.93359375 460.18359375 C-44.93043166 454.05367489 -52.23021029 445.15719869 -56.4375 432.5 C-58.45380612 426.15744482 -59.74841871 420.61644564 -59.75922108 413.95346546 C-59.76367892 412.67620462 -59.76813676 411.39894378 -59.77272969 410.08297807 C-59.7726404 408.66768951 -59.77245056 407.25240096 -59.77217102 405.83711243 C-59.77547149 404.33182292 -59.77919744 402.8265343 -59.7833125 401.3212468 C-59.7933205 397.18291567 -59.79704739 393.04459903 -59.79970181 388.90625751 C-59.80360862 384.44310382 -59.81318694 379.97996157 -59.82191467 375.51681519 C-59.84167209 364.73488418 -59.85174599 353.95295225 -59.86064246 343.17100766 C-59.86502798 338.08924138 -59.87039424 333.00747614 -59.87563133 327.92571068 C-59.89264558 311.02360532 -59.90713742 294.12150061 -59.91438007 277.21938801 C-59.91628988 272.83367728 -59.91821022 268.44796656 -59.92016602 264.06225586 C-59.92064976 262.97224933 -59.9211335 261.88224281 -59.9216319 260.75920578 C-59.92992341 243.12126731 -59.95524458 225.48339685 -59.98774669 207.84548805 C-60.02086997 189.7221026 -60.03883373 171.59875164 -60.04202431 153.47533578 C-60.04418492 143.30592043 -60.05286716 133.13660416 -60.07848549 122.9672184 C-60.10026483 114.30182779 -60.10820762 105.63656031 -60.09851871 96.97114543 C-60.09399441 92.55572846 -60.09575015 88.14056515 -60.11528015 83.72518349 C-60.30013138 39.40599204 -60.30013138 39.40599204 -48.625 23.25 C-48.11324219 22.52683594 -47.60148437 21.80367187 -47.07421875 21.05859375 C-35.62343165 6.53910936 -17.91787583 0.08666445 0 0 Z M-35.93359375 33.94140625 C-39.62134391 38.97480196 -41.2771214 44.05600773 -42.28869057 50.15283489 C-42.41508916 50.89796818 -42.54148775 51.64310148 -42.67171661 52.41081456 C-43.85380233 59.86994997 -44.04525927 67.26171196 -44.00595093 74.80464172 C-44.00941952 76.28744336 -44.01419205 77.77024241 -44.02013266 79.2530362 C-44.03250687 83.27329558 -44.02653535 87.29333778 -44.01717401 91.31359732 C-44.01032763 95.67009267 -44.02089195 100.02655318 -44.02911377 104.38304138 C-44.04239256 112.89454168 -44.03960012 121.40596223 -44.03087585 129.91746555 C-44.02407875 136.83725341 -44.0231913 143.75701906 -44.0264473 150.67680931 C-44.026907 151.66462063 -44.02736669 152.65243195 -44.02784032 153.67017695 C-44.02879957 155.6773281 -44.02977221 157.68447925 -44.0307581 159.69163039 C-44.03929425 178.4721327 -44.02950463 197.25259094 -44.013357 216.03308602 C-43.999945 232.13023366 -44.00229262 248.22731641 -44.01611328 264.32446289 C-44.03218253 283.04916472 -44.03848139 301.77382805 -44.02927649 320.49853581 C-44.0283209 322.49644704 -44.02737779 324.49435828 -44.0264473 326.49226952 C-44.02598447 327.47511766 -44.02552164 328.45796579 -44.02504479 329.47059721 C-44.02245972 336.38064371 -44.02681525 343.29066569 -44.03388596 350.20070839 C-44.04231564 358.62333442 -44.03998953 367.04587661 -44.02404372 375.46849308 C-44.01618238 379.76168467 -44.01303296 384.05473667 -44.02299118 388.34792709 C-44.03198241 392.28382359 -44.02693307 396.21945214 -44.01105852 400.1553246 C-44.00772949 401.57291832 -44.00936209 402.99053505 -44.01668589 404.40811376 C-44.08253981 418.2228248 -42.46710803 429.92080452 -32.73828125 440.25390625 C-25.29850324 447.25519047 -18.64741034 448.75322403 -8.55859375 448.66992188 C1.19968195 448.31358035 7.78843057 444.28336079 14.375 437.25 C21.55418227 428.448509 22.82923699 417.75107092 22.74681091 406.74183655 C22.75063548 405.63678455 22.75446004 404.53173256 22.7584005 403.39319414 C22.76762883 399.7191105 22.75572989 396.04540932 22.74389648 392.37133789 C22.74636623 389.72598111 22.7500446 387.0806527 22.75531006 384.43530273 C22.76443336 378.75401738 22.76316369 373.07281295 22.75512505 367.39152718 C22.74386218 359.17315031 22.75296119 350.95488799 22.76768685 342.73652106 C22.7914155 329.39458046 22.80481817 316.05265404 22.80883789 302.71069336 C22.80908276 301.91348774 22.80932763 301.11628213 22.80957992 300.29491877 C22.81212864 291.39050058 22.81269092 282.48608349 22.81164551 273.58166504 C22.81131243 270.34667969 22.81102705 267.11169434 22.81079102 263.87670898 C22.81072823 263.07835875 22.81066544 262.28000851 22.81060075 261.45746583 C22.80999636 248.15456131 22.8248547 234.8517224 22.85162407 221.54884523 C22.86743857 213.34786167 22.86967758 205.14708971 22.85449005 196.94610386 C22.84392742 190.67173175 22.85368908 184.39754541 22.87104797 178.12319183 C22.87478804 175.54638415 22.87162656 172.96955616 22.86117744 170.39276695 C22.84789519 166.88462376 22.858941 163.37738389 22.87620544 159.86927795 C22.86639867 158.84176755 22.85659189 157.81425714 22.84648794 156.75561005 C22.91659544 149.90217099 22.91659544 149.90217099 25.22258091 146.62145138 C28.23015112 144.70512554 29.87314833 144.60680275 33.375 145.25 C38.43863781 149.48424886 41.66473121 154.98020623 45.1875 160.5 C45.83549561 161.50417969 46.48349121 162.50835937 47.15112305 163.54296875 C49.23314723 166.77396275 51.30532064 170.0110862 53.375 173.25 C54.06722656 174.33216797 54.75945312 175.41433594 55.47265625 176.52929688 C58.23030657 180.8410249 60.98733675 185.15314416 63.74121094 189.46728516 C67.62942262 195.55106958 71.56220251 201.59797976 75.59033203 207.58984375 C81.29257006 216.08083624 86.84054384 224.673822 92.41943359 233.24609375 C95.56815134 238.08277579 98.7217575 242.91626717 101.875 247.75 C103.12502484 249.66665047 104.37502481 251.58331715 105.625 253.5 C106.24375 254.44875 106.8625 255.3975 107.5 256.375 C173.125 357 173.125 357 174.99975586 359.875 C176.25011297 361.79196463 177.50092698 363.70863131 178.75219727 365.625 C181.87554478 370.40977173 184.99083141 375.19942525 188.08984375 380 C204.91621339 406.59385807 204.91621339 406.59385807 224.375 431.25 C224.94992187 431.90613281 225.52484375 432.56226563 226.1171875 433.23828125 C232.81171993 440.44184495 241.00911392 444.58771337 250.375 447.25 C251.365 447.58 252.355 447.91 253.375 448.25 C266.64733881 449.30986009 279.22016651 449.04841605 290.33984375 441.02734375 C300.03773565 432.55797558 302.53686987 419.54119089 303.375 407.25 C303.51666783 402.33315606 303.5189054 397.41764106 303.51544189 392.49917603 C303.51803004 391.01829367 303.52104444 389.53741202 303.5244453 388.05653131 C303.53246519 384.00912363 303.53430204 379.96173373 303.53504276 375.91431904 C303.536902 371.54066816 303.54445345 367.16702633 303.55117798 362.79338074 C303.56472413 353.24182017 303.57077964 343.69026381 303.57518864 334.13869524 C303.57795623 328.17084572 303.58219441 322.20299781 303.58669281 316.23514938 C303.59887849 299.69912378 303.60918057 283.16309946 303.6125679 266.62706947 C303.61278747 265.57006699 303.61300703 264.5130645 303.61323325 263.42403164 C303.61345153 262.36457182 303.61366981 261.30511201 303.6138947 260.21354735 C303.61433816 258.06684407 303.61478472 255.92014078 303.61523438 253.7734375 C303.6154558 252.70860954 303.61567723 251.64378157 303.61590537 250.5466861 C303.6198548 233.28655024 303.63731636 216.02645656 303.6605939 198.76633699 C303.68432096 181.02928615 303.6967703 163.29225646 303.69793582 145.55518949 C303.69885159 135.60291771 303.70457956 125.65070096 303.72275543 115.69844437 C303.7381744 107.22625251 303.74326611 98.75413273 303.73501733 90.28192951 C303.73111778 85.96245069 303.73200652 81.64311694 303.74607468 77.32365608 C303.7588546 73.36343757 303.75758047 69.40347253 303.74548396 65.44325416 C303.74353408 64.01669784 303.74657237 62.59012331 303.75532833 61.16359253 C303.83388447 47.49095213 302.23527029 34.22648925 292.5625 23.9375 C285.44159448 17.19972298 277.53428425 15.96814503 267.96484375 16.09765625 C259.01332446 16.62421621 252.98912106 19.3186355 246.75 25.875 C240.96110538 32.72689961 238.26198226 41.20433924 238.23912811 50.11760807 C238.23427037 51.07606351 238.22941262 52.03451895 238.22440767 53.02201849 C238.22396369 54.58942279 238.22396369 54.58942279 238.22351074 56.18849182 C238.21927833 57.30475148 238.21504592 58.42101113 238.21068525 59.57109684 C238.19764824 63.31896499 238.19163199 67.06681186 238.18554688 70.81469727 C238.17760542 73.49856807 238.16926848 76.18243483 238.16041565 78.86630249 C238.14207856 84.64915515 238.12722808 90.43200827 238.11463928 96.21487617 C238.09633705 104.58028054 238.07167279 112.94565705 238.04526538 121.31103932 C238.00248343 134.88923532 237.96336561 148.467439 237.92724609 162.0456543 C237.92508329 162.85821538 237.92292049 163.67077646 237.92069215 164.50796061 C237.90316916 171.10166601 237.88582362 177.69537187 237.86848927 184.28907776 C237.85332618 190.05429099 237.83809351 195.81950403 237.82275391 201.5847168 C237.82059504 202.39659136 237.81843617 203.20846592 237.81621188 204.04494274 C237.7801177 217.57363993 237.7401669 231.10232308 237.69745111 244.63100094 C237.67128594 252.97738059 237.64862904 261.32375596 237.63046753 269.67015695 C237.61781049 275.38608706 237.60168808 281.10200052 237.58281839 286.81791348 C237.57205171 290.11760468 237.56347559 293.41727685 237.55812263 296.71698189 C237.55209692 300.29084908 237.54005882 303.8646465 237.52648926 307.43849182 C237.52604528 309.0092422 237.52604528 309.0092422 237.52559233 310.61172491 C237.52073458 311.56757261 237.51587684 312.5234203 237.51087189 313.50823307 C237.50875592 314.33331303 237.50663995 315.15839298 237.50445986 316.00847536 C237.37724619 318.21110855 236.98526585 320.13472815 236.375 322.25 C234.98635566 322.55556226 233.58818736 322.81800808 232.1875 323.0625 C231.41019531 323.21332031 230.63289063 323.36414063 229.83203125 323.51953125 C226.22848907 323.12423012 224.60842581 320.90446161 222.375 318.25 C220.29148338 315.35128309 218.38595466 312.34989243 216.48046875 309.33203125 C215.32542434 307.52899992 214.16963493 305.72644567 213.01318359 303.92431641 C212.41584412 302.99024963 211.81850464 302.05618286 211.20306396 301.09381104 C208.21014214 296.43789949 205.16190595 291.81877358 202.11328125 287.19921875 C201.50410858 286.27497101 200.89493591 285.35072327 200.26730347 284.39846802 C199.02967776 282.52088695 197.79173174 280.64351698 196.5534668 278.76635742 C194.67743018 275.92223388 192.80251249 273.07737511 190.92773438 270.23242188 C185.76451206 262.39999916 180.59855132 254.56971624 175.38671875 246.76953125 C168.19241144 236.00193394 161.09059124 225.17299248 153.97021484 214.35644531 C145.20317248 201.03297508 145.20317248 201.03297508 136.375 187.75 C129.18382384 176.9894263 122.08642312 166.1666607 114.97021484 155.35644531 C108.72847716 145.87569104 102.485426 136.39641632 96.179245 126.95837402 C90.14187493 117.91552669 84.16956073 108.82947995 78.1875 99.75 C77.54703735 98.7781073 76.90657471 97.8062146 76.2467041 96.80487061 C69.02164224 85.83991222 61.79797135 74.87413244 54.625 63.875 C54.05112549 62.99505371 53.47725098 62.11510742 52.88598633 61.20849609 C50.48265062 57.51568043 48.09267847 53.81550358 45.734375 50.09375 C36.49513409 35.51310197 26.90468204 21.02511052 9.375 16.25 C-9.338066 14.16821736 -23.45056328 19.73837575 -35.93359375 33.94140625 Z " fill="#092933" transform="translate(123.625,31.75)"/>
<path d="M0 0 C0.33 0 0.66 0 1 0 C1.04581112 45.47914633 1.08103631 90.95829022 1.10213066 136.43745509 C1.10463197 141.81076111 1.10722063 147.18406709 1.10986328 152.55737305 C1.1103879 153.62706909 1.11091252 154.69676514 1.11145304 155.79887622 C1.12014772 173.1028744 1.13591253 190.40685925 1.15430559 207.71084953 C1.17303072 225.47584608 1.18412225 243.24083566 1.18817699 261.00584167 C1.19091663 271.9614163 1.19955919 282.91695324 1.21583293 293.87251627 C1.22643207 301.39249313 1.22959401 308.9124506 1.22700275 316.43243439 C1.22572602 320.76636375 1.22763698 325.10022739 1.23841095 329.43414497 C1.24822574 333.41152341 1.24858222 337.38879264 1.24179779 341.36617636 C1.2409607 342.7957765 1.24342761 344.22538378 1.24976636 345.65497012 C1.31406982 361.06912321 1.19310185 379.50967304 -10.0625 391.46875 C-21.77488836 400.725315 -34.79228515 400.83557176 -49 400 C-52.6245889 399.44135584 -55.68012871 398.53847694 -59 397 C-59.73863281 396.67128906 -60.47726562 396.34257812 -61.23828125 396.00390625 C-86.09956516 383.59473345 -101.40756623 351.51370688 -115.89648438 329.23388672 C-118.5170493 325.20510272 -121.14342381 321.18012705 -123.77001953 317.15527344 C-126.23359016 313.37983037 -128.69536418 309.60321725 -131.15722656 305.82666016 C-134.27081773 301.05067201 -137.38546724 296.27537414 -140.5 291.5 C-141.75000496 289.58333657 -143.00000497 287.66666991 -144.25 285.75 C-144.86875 284.80125 -145.4875 283.8525 -146.125 282.875 C-196.75000001 205.24999999 -196.75000001 205.24999999 -198.62451172 202.37573242 C-199.87611947 200.4566114 -201.12774711 198.53750335 -202.37939453 196.6184082 C-205.47995818 191.86439867 -208.58019012 187.11017353 -211.6796875 182.35546875 C-221.10684994 167.89517082 -230.5504084 153.44564667 -240 139 C-239.34 138.67 -238.68 138.34 -238 138 C-237.51926025 138.70624512 -237.51926025 138.70624512 -237.02880859 139.42675781 C-230.23031046 149.40686649 -223.38125969 159.34863778 -216.44482422 169.23339844 C-211.94649532 175.64404248 -207.46905641 182.06891882 -203 188.5 C-195.68989813 199.01633308 -188.35050392 209.51188098 -181 220 C-172.96768491 231.46096617 -164.95417939 242.93461424 -156.96582031 254.42626953 C-150.33232566 263.96612614 -143.66869197 273.48472922 -137 283 C-129.64949521 293.48812026 -122.31038379 303.98386193 -115 314.5 C-108.20037702 324.27978561 -101.39182373 334.05300335 -94.54150391 343.79736328 C-93.11490348 345.83581578 -91.70191959 347.88292174 -90.29296875 349.93359375 C-80.28604244 364.4020464 -69.69490528 377.20762982 -52 382 C-51.01 382.33 -50.02 382.66 -49 383 C-36.05431216 384.08304652 -23.86019495 383.6010669 -13.03515625 375.7734375 C-4.86116159 368.65060914 -1.71367186 357.93143158 -0.63026476 347.40900159 C-0.48471242 343.5999114 -0.45770752 339.80184034 -0.48101807 335.99111938 C-0.4751273 334.5312239 -0.46749223 333.07133462 -0.458287 331.61145627 C-0.4382034 327.64102357 -0.44253382 323.67095175 -0.45119452 319.70049191 C-0.45617019 315.40345264 -0.43801644 311.10650051 -0.42277527 306.80949402 C-0.39953462 299.37831189 -0.39071155 291.94722715 -0.39188385 284.51601028 C-0.39355761 273.77194908 -0.37317243 263.02801717 -0.34752855 252.28399055 C-0.30650923 234.84948958 -0.28315033 217.41501198 -0.27099609 199.98046875 C-0.25915644 183.05173499 -0.23893816 166.12304517 -0.20751953 149.19433594 C-0.20558343 148.14957862 -0.20364733 147.1048213 -0.20165256 146.02840467 C-0.19188753 140.78678428 -0.18195851 135.54516421 -0.17194796 130.30354428 C-0.08920781 86.86905094 -0.03517039 43.43455616 0 0 Z " fill="#2D99BF" transform="translate(426,80)"/>
<path d="M0 0 C3.63606599 3.19588424 6.28944562 6.65489509 8.90625 10.70703125 C9.44270897 11.53165611 9.44270897 11.53165611 9.99000549 12.37294006 C11.16559716 14.1825686 12.33267506 15.9975303 13.5 17.8125 C14.33062031 19.09370186 15.16193343 20.37445481 15.99389648 21.65478516 C17.75331478 24.36323896 19.51002674 27.07342059 21.26513672 29.78466797 C25.39008243 36.15013309 29.5551062 42.48932425 33.71923828 48.82919312 C35.01960821 50.80967518 36.31858581 52.79106325 37.6171875 54.77270508 C38.02935516 55.40076553 38.44152283 56.02882599 38.86618042 56.67591858 C39.68083337 57.91877256 40.49362935 59.16284591 41.30447388 60.40818787 C43.42811284 63.65879092 45.59737421 66.86461974 47.84326172 70.03222656 C48.30784286 70.69795685 48.77242401 71.36368713 49.25108337 72.04959106 C50.13732706 73.3163416 51.03630085 74.57432077 51.95021057 75.82125854 C54.8552284 80.00652999 55.63285738 82.94550302 55 88 C52.61316037 91.29945478 51.04972834 92.70333764 47.125 93.8125 C38.61315579 91.59942051 34.02076151 80.41943717 29.703125 73.36328125 C27.09001566 69.10988801 24.34846966 64.95412958 21.5625 60.8125 C16.0484341 52.59870456 10.6092631 44.33736709 5.1875 36.0625 C4.78330841 35.44629791 4.37911682 34.83009583 3.962677 34.19522095 C2.0246052 31.24025871 0.08982711 28.28325076 -1.8371582 25.32104492 C-3.25289511 23.14718002 -4.67565244 20.97786717 -6.10620117 18.8137207 C-6.74146729 17.84136475 -7.3767334 16.86900879 -8.03125 15.8671875 C-8.59005859 15.01882324 -9.14886719 14.17045898 -9.72460938 13.29638672 C-11.56109963 9.98971992 -11.82471716 7.67374006 -11 4 C-8.115552 -0.49973888 -5.11460998 -0.80757 0 0 Z " fill="#FBFDFE" transform="translate(206,155)"/>
<path d="M0 0 C0.33 0 0.66 0 1 0 C1.51977979 13.67309603 1.96826051 27.19419052 -7.37109375 38.2890625 C-14.05546691 45.31005877 -19.85640486 48.98495297 -29.76391602 49.40283203 C-39.61965941 49.56468187 -47.0630718 48.0842821 -54.375 41.1875 C-65.05472826 29.47632917 -65.48283677 16.09311987 -65 1 C-64.67 1 -64.34 1 -64 1 C-63.84144531 1.76183594 -63.68289062 2.52367187 -63.51953125 3.30859375 C-61.19404477 13.59983503 -58.04020382 21.97929746 -49 28 C-41.24010384 32.88416994 -33.04073074 33.15338128 -24.15625 31.45703125 C-16.05975506 29.25000477 -9.53418004 25.1652817 -5 18 C-2.52300665 12.14171414 -0.9429739 6.28338056 0 0 Z " fill="#2F9DC3" transform="translate(145,431)"/>
<path d="M0 0 C5.90608891 2.09173982 9.10755093 7.32376001 12.375 12.4375 C13.08398438 13.51773438 13.79296875 14.59796875 14.5234375 15.7109375 C16.29011549 19.72101612 16.04525368 21.86099011 15 26.0625 C13.27733902 28.93360164 11.89242948 29.09437275 8.625 30.0625 C5 30.0625 5 30.0625 2.578125 27.9921875 C-0.18328912 24.85421691 -2.57754402 21.67147107 -4.875 18.1875 C-5.29007813 17.60097656 -5.70515625 17.01445312 -6.1328125 16.41015625 C-8.29894086 13.12486156 -9.0049838 11.24154771 -8.89453125 7.2734375 C-8 4.0625 -8 4.0625 -5.8125 1.5625 C-3 0.0625 -3 0.0625 0 0 Z " fill="#F9FDFE" transform="translate(177,113.9375)"/>
</svg>
