<svg xmlns="http://www.w3.org/2000/svg" width="1024" height="1024" viewBox="0 0 1024 1024">
<g>
<path d="M 379.75 788.38 C381.94,792.57 383.34,796.00 382.85,796.00 C381.22,796.00 359.05,784.11 349.54,778.13 C283.25,736.46 247.98,672.91 247.91,595.00 C247.87,556.17 255.00,524.49 271.41,490.50 C284.54,463.29 299.39,443.14 320.23,424.25 C328.33,416.91 330.00,415.90 330.00,418.37 C330.00,419.12 331.59,422.91 333.53,426.78 C343.60,446.92 372.80,459.74 396.91,454.62 C424.67,448.71 447.27,425.14 458.39,390.50 C465.33,368.88 466.88,349.95 464.93,310.50 C464.14,294.55 463.53,270.02 463.58,256.00 C463.66,228.67 464.71,219.33 469.64,202.00 C472.19,193.04 481.70,172.84 483.64,172.25 C484.46,172.00 484.64,174.27 484.26,180.33 C483.24,196.62 487.39,213.88 496.86,232.69 C505.13,249.13 513.63,261.37 533.55,285.50 C570.20,329.89 581.13,350.26 585.45,382.24 C586.29,388.43 587.42,405.88 587.97,421.00 C589.54,464.25 593.23,480.35 605.49,497.54 C621.59,520.10 653.00,532.43 679.40,526.55 C704.51,520.97 726.11,500.47 733.52,475.20 C734.70,471.19 736.07,467.85 736.58,467.80 C738.28,467.60 746.10,480.37 753.55,495.50 C764.28,517.29 771.55,541.13 775.20,566.50 C777.17,580.18 776.86,616.83 774.65,630.96 C771.20,653.14 762.93,680.11 754.26,697.50 C737.43,731.26 707.96,762.90 674.85,782.75 C665.57,788.32 660.00,791.27 660.00,790.63 C660.00,790.39 661.54,786.22 663.42,781.35 C665.30,776.48 667.75,768.90 668.87,764.50 C676.46,734.68 672.90,700.93 659.27,673.50 C655.14,665.19 650.76,658.00 649.83,658.00 C649.46,658.00 648.42,660.22 647.52,662.94 C642.55,677.90 629.69,689.16 614.44,691.92 C602.35,694.10 588.39,689.32 578.08,679.50 C567.43,669.33 564.62,659.61 563.09,627.50 C561.42,592.45 558.25,584.65 533.09,553.50 C527.31,546.35 520.71,537.80 518.41,534.50 C508.82,520.71 503.08,505.01 502.91,492.09 L 502.83 485.50 L 499.04 493.37 C491.57,508.90 490.10,522.65 491.99,559.37 C493.03,579.47 493.05,586.58 492.07,594.31 C489.55,614.35 484.23,626.74 473.50,637.57 C462.47,648.70 452.04,652.29 438.76,649.52 C428.11,647.30 419.03,640.82 415.46,632.90 C414.49,630.76 413.19,629.00 412.57,629.00 C411.96,629.00 408.02,632.49 403.81,636.75 C386.24,654.58 374.59,676.73 368.98,703.00 C366.04,716.76 365.74,741.99 368.35,755.29 C370.61,766.78 374.79,778.92 379.75,788.38 Z" fill="rgb(235,36,21)"/>
<path d="M 550.49 852.48 C540.86,854.86 522.53,856.40 515.50,855.41 C488.24,851.57 469.11,842.75 455.29,827.63 C448.89,820.63 444.96,813.81 441.35,803.50 C438.81,796.22 438.56,794.25 438.55,781.50 C438.55,766.39 440.20,758.55 445.70,747.53 C451.07,736.76 463.68,722.53 464.81,725.94 C465.93,729.28 471.48,734.00 476.12,735.54 C487.94,739.46 499.27,732.59 505.32,717.81 C507.35,712.86 507.51,710.79 507.59,687.00 C507.67,660.85 508.55,653.73 512.30,648.60 C513.56,646.88 513.74,647.20 514.32,652.10 C515.18,659.45 520.49,669.77 528.69,680.03 C539.42,693.46 540.96,695.68 543.62,701.48 C546.24,707.21 547.95,718.85 547.98,731.21 C548.03,748.14 558.57,760.06 573.43,759.98 C581.61,759.93 591.11,752.87 594.09,744.61 C594.81,742.63 595.71,741.00 596.10,741.00 C597.45,741.00 604.85,757.62 606.56,764.50 C608.88,773.84 608.94,791.28 606.68,800.00 C605.75,803.58 603.13,810.33 600.85,815.00 C597.51,821.88 595.07,825.13 588.11,832.04 C581.06,839.04 577.78,841.43 569.99,845.29 C564.50,848.01 556.25,851.05 550.49,852.48 Z" fill="rgb(248,187,3)"/>
<path d="M 0.00 512.00 L 0.00 0.00 L 512.00 0.00 L 1024.00 0.00 L 1024.00 512.00 L 1024.00 1024.00 L 512.00 1024.00 L 0.00 1024.00 L 0.00 512.00 ZM 550.49 852.48 C556.25,851.05 564.50,848.01 569.99,845.29 C577.78,841.43 581.06,839.04 588.11,832.04 C595.07,825.13 597.51,821.88 600.85,815.00 C603.13,810.33 605.75,803.58 606.68,800.00 C608.94,791.28 608.88,773.84 606.56,764.50 C604.85,757.62 597.45,741.00 596.10,741.00 C595.71,741.00 594.81,742.63 594.09,744.61 C591.11,752.87 581.61,759.93 573.43,759.98 C558.57,760.06 548.03,748.14 547.98,731.21 C547.95,718.85 546.24,707.21 543.62,701.48 C540.96,695.68 539.42,693.46 528.69,680.03 C520.49,669.77 515.18,659.45 514.32,652.10 C513.74,647.20 513.56,646.88 512.30,648.60 C508.55,653.73 507.67,660.85 507.59,687.00 C507.51,710.79 507.35,712.86 505.32,717.81 C499.27,732.59 487.94,739.46 476.12,735.54 C471.48,734.00 465.93,729.28 464.81,725.94 C463.68,722.53 451.07,736.76 445.70,747.53 C440.20,758.55 438.55,766.39 438.55,781.50 C438.56,794.25 438.81,796.22 441.35,803.50 C444.96,813.81 448.89,820.63 455.29,827.63 C469.11,842.75 488.24,851.57 515.50,855.41 C522.53,856.40 540.86,854.86 550.49,852.48 ZM 379.75 788.38 C374.79,778.92 370.61,766.78 368.35,755.29 C365.74,741.99 366.04,716.76 368.98,703.00 C374.59,676.73 386.24,654.58 403.81,636.75 C408.02,632.49 411.96,629.00 412.57,629.00 C413.19,629.00 414.49,630.76 415.46,632.90 C419.03,640.82 428.11,647.30 438.76,649.52 C452.04,652.29 462.47,648.70 473.50,637.57 C484.23,626.74 489.55,614.35 492.07,594.31 C493.05,586.58 493.03,579.47 491.99,559.37 C490.10,522.65 491.57,508.90 499.04,493.37 L 502.83 485.50 L 502.91 492.09 C503.08,505.01 508.82,520.71 518.41,534.50 C520.71,537.80 527.31,546.35 533.09,553.50 C558.25,584.65 561.42,592.45 563.09,627.50 C564.62,659.61 567.43,669.33 578.08,679.50 C588.39,689.32 602.35,694.10 614.44,691.92 C629.69,689.16 642.55,677.90 647.52,662.94 C648.42,660.22 649.46,658.00 649.83,658.00 C650.76,658.00 655.14,665.19 659.27,673.50 C672.90,700.93 676.46,734.68 668.87,764.50 C667.75,768.90 665.30,776.48 663.42,781.35 C661.54,786.22 660.00,790.39 660.00,790.63 C660.00,791.27 665.57,788.32 674.85,782.75 C707.96,762.90 737.43,731.26 754.26,697.50 C762.93,680.11 771.20,653.14 774.65,630.96 C776.86,616.83 777.17,580.18 775.20,566.50 C771.55,541.13 764.28,517.29 753.55,495.50 C746.10,480.37 738.28,467.60 736.58,467.80 C736.07,467.85 734.70,471.19 733.52,475.20 C726.11,500.47 704.51,520.97 679.40,526.55 C653.00,532.43 621.59,520.10 605.49,497.54 C593.23,480.35 589.54,464.25 587.97,421.00 C587.42,405.88 586.29,388.43 585.45,382.24 C581.13,350.26 570.20,329.89 533.55,285.50 C513.63,261.37 505.13,249.13 496.86,232.69 C487.39,213.88 483.24,196.62 484.26,180.33 C484.64,174.27 484.46,172.00 483.64,172.25 C481.70,172.84 472.19,193.04 469.64,202.00 C464.71,219.33 463.66,228.67 463.58,256.00 C463.53,270.02 464.14,294.55 464.93,310.50 C466.88,349.95 465.33,368.88 458.39,390.50 C447.27,425.14 424.67,448.71 396.91,454.62 C372.80,459.74 343.60,446.92 333.53,426.78 C331.59,422.91 330.00,419.12 330.00,418.37 C330.00,415.90 328.33,416.91 320.23,424.25 C299.39,443.14 284.54,463.29 271.41,490.50 C255.00,524.49 247.87,556.17 247.91,595.00 C247.98,672.91 283.25,736.46 349.54,778.13 C359.05,784.11 381.22,796.00 382.85,796.00 C383.34,796.00 381.94,792.57 379.75,788.38 Z" fill="rgb(254,254,254)"/>
</g>
</svg>