<svg xmlns="http://www.w3.org/2000/svg" width="486" height="301" viewBox="0 0 486 301">
<g>
<path d="M 23.79 245.90 L 23.50 254.50 L 17.75 254.80 L 12.00 255.10 L 12.00 188.76 L 30.75 189.20 C48.64,189.61 49.74,189.75 54.65,192.28 C60.97,195.54 63.57,198.72 65.60,205.68 C67.93,213.70 65.50,223.41 59.84,228.69 C54.66,233.53 46.72,236.10 35.05,236.72 L 24.07 237.30 ZM 424.75 253.75 C424.20,254.44 421.58,255.00 418.88,255.00 L 414.00 255.00 L 414.00 188.90 L 419.25 189.20 C419.83,189.23 420.33,189.23 420.77,189.23 C421.37,189.23 421.87,189.22 422.36,189.31 C425.15,189.82 427.40,193.29 445.07,216.75 C450.56,224.04 455.49,230.00 456.02,230.00 C456.63,230.00 457.00,222.17 457.00,209.50 L 457.00 189.00 L 469.03 189.00 L 468.50 254.50 L 463.93 254.80 L 459.35 255.10 L 444.17 234.66 C435.82,223.43 428.36,213.71 427.58,213.07 C425.41,211.26 425.00,215.30 425.40,235.00 C425.61,245.64 425.35,252.99 424.75,253.75 ZM 350.56 247.75 L 347.68 255.00 L 342.51 255.00 C339.66,255.00 337.07,254.74 336.75,254.41 C336.12,253.79 338.06,249.01 349.68,222.50 C353.78,213.15 358.76,201.77 360.75,197.21 L 364.35 188.91 L 370.42 189.21 L 376.48 189.50 L 386.27 212.00 C401.27,246.48 404.02,253.38 403.11,254.29 C402.65,254.75 400.09,254.98 397.42,254.81 L 392.55 254.50 L 389.87 248.00 C388.39,244.43 386.64,240.91 385.99,240.18 C385.07,239.17 381.25,238.92 369.86,239.14 C361.65,239.30 354.59,239.67 354.18,239.96 C353.77,240.26 352.14,243.76 350.56,247.75 ZM 189.46 247.50 L 186.43 254.50 L 180.71 254.80 C177.57,254.96 175.00,254.87 175.00,254.59 C175.00,253.74 178.97,243.93 181.71,238.02 C183.11,234.98 187.07,225.98 190.51,218.00 C193.94,210.02 198.24,200.22 200.05,196.21 L 203.34 188.91 L 209.37 189.21 L 215.40 189.50 L 222.77 206.50 C239.20,244.38 242.90,253.36 242.40,254.16 C242.12,254.62 239.73,255.00 237.11,255.00 C236.94,255.00 236.78,255.00 236.62,255.00 C234.99,255.00 233.93,255.01 233.08,254.60 C231.42,253.81 230.50,251.50 227.59,244.75 L 225.11 239.00 L 209.81 239.02 C201.39,239.02 194.05,239.36 193.49,239.77 C192.94,240.17 191.13,243.65 189.46,247.50 ZM 155.32 253.97 C148.98,255.80 138.92,256.06 132.39,254.57 C125.50,253.00 118.16,249.58 117.39,247.57 C116.60,245.50 119.78,238.69 121.24,239.33 C132.86,244.45 135.92,245.31 142.71,245.38 C148.47,245.44 150.46,245.05 152.63,243.43 C156.43,240.59 157.40,238.72 156.63,235.67 C155.83,232.48 151.03,229.82 141.94,227.54 C125.08,223.30 118.97,218.66 118.21,209.54 C117.65,202.71 119.06,199.08 124.05,194.58 C128.55,190.51 132.92,189.04 142.71,188.29 C150.09,187.73 156.80,188.84 162.80,191.61 C166.32,193.24 166.39,194.26 163.39,200.16 L 162.04 202.82 L 156.77 200.78 C149.43,197.93 137.97,197.89 134.21,200.69 C130.29,203.60 129.32,207.04 131.49,210.34 C132.88,212.47 135.53,213.74 144.37,216.55 C159.45,221.33 164.00,223.78 166.73,228.57 C172.14,238.09 166.45,250.76 155.32,253.97 ZM 278.50 230.50 L 277.50 254.50 L 271.75 254.80 L 266.00 255.10 L 266.00 232.00 L 257.89 218.25 C253.43,210.69 248.03,201.55 245.89,197.94 C243.75,194.33 242.00,190.84 242.00,190.19 C242.00,189.41 243.96,189.01 247.75,189.03 L 253.50 189.05 L 259.40 199.28 C268.13,214.40 272.10,221.00 272.48,221.00 C272.66,221.00 274.94,217.29 277.53,212.75 C280.13,208.21 284.31,201.01 286.83,196.75 L 291.40 189.00 L 297.28 189.00 C300.52,189.00 303.02,189.34 302.83,189.75 C302.27,191.02 291.05,209.95 284.61,220.50 ZM 98.77 228.32 L 98.50 254.50 L 92.46 254.79 C89.14,254.95 86.10,254.77 85.71,254.38 C85.32,253.99 85.00,241.82 85.00,227.33 C85.00,212.85 84.66,200.98 84.25,200.96 C83.84,200.94 81.96,199.60 80.08,198.00 L 76.66 195.07 L 78.48 191.04 L 80.30 187.00 L 91.90 187.01 L 103.50 187.01 L 105.25 190.09 C107.74,194.46 107.49,195.44 103.02,198.99 L 99.03 202.14 ZM 326.00 188.90 L 326.00 255.00 L 320.47 255.00 C316.94,255.00 314.76,254.54 314.45,253.74 C314.19,253.05 314.09,238.31 314.24,220.99 L 314.50 189.50 L 320.25 189.20 ZM 24.67 225.33 C25.70,226.36 40.07,226.11 44.11,224.99 C50.74,223.14 54.00,218.80 54.00,211.79 C54.00,202.89 49.10,200.00 34.03,200.00 L 24.00 200.00 L 24.00 212.33 C24.00,219.12 24.30,224.97 24.67,225.33 ZM 359.00 228.55 C359.00,229.73 361.06,230.00 369.94,230.00 C375.96,230.00 381.12,229.62 381.40,229.16 C382.00,228.19 370.95,202.00 369.94,202.00 C369.11,202.00 359.00,226.55 359.00,228.55 ZM 198.00 228.75 C198.00,229.67 200.86,230.00 208.94,230.00 C214.96,230.00 220.11,229.63 220.39,229.18 C220.67,228.73 220.34,227.26 219.65,225.93 C218.96,224.59 216.46,218.66 214.09,212.75 C211.72,206.84 209.44,202.00 209.03,202.00 C208.21,202.00 198.00,226.75 198.00,228.75 ZM 15.00 283.00 C15.00,285.87 14.10,286.77 12.67,285.33 C12.30,284.97 12.00,281.19 12.00,276.94 C12.00,268.70 12.43,268.00 17.53,268.00 C21.81,268.00 24.78,270.03 25.25,273.27 C25.84,277.29 23.13,280.00 18.50,280.00 C15.28,280.00 15.00,280.24 15.00,283.00 ZM 267.00 284.00 C265.94,285.98 264.83,286.49 263.80,285.47 C262.78,284.45 269.32,269.90 271.26,268.86 C273.70,267.56 273.93,267.84 277.89,276.89 C280.31,282.44 280.83,284.56 279.96,285.39 C279.11,286.21 278.41,285.91 277.28,284.25 C275.22,281.21 268.58,281.05 267.00,284.00 ZM 370.00 280.47 C368.96,290.58 365.51,285.18 366.19,274.50 C366.61,267.80 369.27,267.24 373.31,272.99 C374.86,275.20 376.55,277.00 377.06,277.00 C377.58,277.00 378.00,275.20 378.00,273.00 C378.00,270.11 378.42,269.00 379.50,269.00 C380.71,269.00 381.00,270.55 381.00,276.94 C381.00,281.31 380.59,285.13 380.09,285.44 C379.60,285.75 377.23,283.66 374.84,280.80 L 370.50 275.60 ZM 312.00 280.41 C312.00,284.67 311.03,286.69 309.64,285.31 C309.29,284.95 309.00,281.93 309.00,278.58 L 309.00 272.50 L 313.97 272.29 C316.70,272.18 319.20,272.51 319.53,273.04 C319.90,273.65 320.88,273.60 322.15,272.92 C325.07,271.36 328.86,272.61 329.55,275.36 C330.45,278.93 329.65,285.30 328.25,285.76 C327.42,286.03 327.00,285.05 326.99,282.83 C326.96,277.11 325.97,274.86 323.62,275.20 C321.87,275.45 321.41,276.36 321.00,280.42 C320.38,286.50 318.00,287.97 318.00,282.27 C318.00,277.63 315.99,274.41 313.64,275.31 C312.46,275.76 312.00,277.18 312.00,280.41 ZM 212.00 284.00 C208.36,287.64 203.16,286.21 200.98,280.96 C199.85,278.24 199.94,277.56 201.70,275.19 C205.75,269.74 214.00,271.98 214.00,278.52 C214.00,280.67 213.23,282.77 212.00,284.00 ZM 444.09 284.13 C441.10,286.55 438.90,286.49 435.63,283.93 C433.71,282.41 433.00,280.94 433.00,278.45 C433.00,273.97 436.48,271.49 441.46,272.43 C445.57,273.20 446.17,273.98 446.30,278.70 C446.38,281.29 445.77,282.76 444.09,284.13 ZM 419.00 282.50 C417.75,286.28 416.88,286.76 415.12,284.64 C413.20,282.33 410.96,273.64 412.01,272.59 C413.40,271.20 414.10,272.31 414.72,276.92 C415.02,279.16 415.61,281.00 416.04,281.00 C416.46,281.00 417.42,279.09 418.16,276.76 C420.08,270.69 422.66,270.54 423.54,276.44 C423.92,278.95 424.61,281.00 425.07,281.00 C425.54,281.00 426.46,279.20 427.12,277.00 C427.78,274.80 428.92,273.00 429.66,273.00 C431.36,273.00 431.26,274.31 429.09,280.50 C427.05,286.30 425.13,286.86 423.00,282.27 C422.17,280.50 421.20,279.03 420.83,279.02 C420.46,279.01 419.64,280.58 419.00,282.50 ZM 245.80 280.24 L 245.50 285.24 L 241.50 285.58 C236.83,285.97 234.00,284.65 234.00,282.07 C234.00,279.81 235.76,278.30 238.92,277.85 C240.25,277.66 241.55,276.87 241.81,276.10 C242.17,275.00 241.48,274.82 238.63,275.28 C235.98,275.72 235.00,275.52 235.00,274.54 C235.00,271.73 241.91,271.06 244.48,273.62 C245.64,274.78 246.01,276.66 245.80,280.24 ZM 56.53 284.95 C55.57,286.50 52.37,286.22 50.57,284.43 C47.54,281.40 49.20,278.46 54.28,277.84 C57.92,277.40 57.35,275.52 53.57,275.45 C51.95,275.42 50.46,274.87 50.24,274.23 C49.70,272.60 54.77,271.53 57.89,272.63 C60.15,273.42 60.54,274.19 60.81,278.39 C61.20,284.57 60.50,286.66 58.58,285.06 C57.62,284.27 56.97,284.23 56.53,284.95 ZM 395.56 284.53 C391.68,287.47 386.95,285.82 385.13,280.90 C383.87,277.52 385.66,273.84 389.15,272.61 C392.44,271.46 394.44,272.21 396.53,275.40 C398.77,278.83 397.70,280.00 392.32,280.00 C388.38,280.00 387.92,280.20 389.00,281.50 C389.68,282.33 391.88,283.01 393.87,283.03 C397.28,283.06 397.38,283.15 395.56,284.53 ZM 177.99 279.95 L 177.99 285.50 L 173.60 285.70 C166.33,286.02 163.05,279.91 169.71,278.45 C174.48,277.40 175.15,277.05 174.46,275.94 C174.10,275.35 172.61,274.95 171.15,275.04 C166.88,275.32 166.38,275.03 168.44,273.47 C170.79,271.69 175.15,271.55 176.80,273.20 C177.46,273.86 178.00,276.90 177.99,279.95 ZM 133.56 284.53 C132.49,285.34 130.66,286.00 129.48,286.00 C126.58,286.00 123.00,281.96 123.00,278.69 C123.00,272.57 131.35,269.55 134.59,274.49 C137.10,278.32 135.82,280.00 130.41,280.00 C126.39,280.00 125.92,280.20 127.00,281.50 C127.68,282.33 129.88,283.01 131.87,283.03 C135.28,283.06 135.38,283.15 133.56,284.53 ZM 463.02 284.25 C463.00,286.03 461.88,286.54 460.67,285.33 C459.55,284.22 459.91,269.17 461.07,268.46 C462.58,267.52 462.94,268.15 463.24,272.32 C463.38,274.34 463.65,276.00 463.84,276.00 C464.03,276.00 465.33,275.10 466.73,274.00 C470.70,270.88 472.49,271.42 469.88,274.95 L 467.69 277.91 L 470.35 281.39 C474.02,286.21 471.70,287.59 467.79,282.92 C465.43,280.09 464.77,279.76 463.98,281.00 C463.46,281.83 463.02,283.29 463.02,284.25 ZM 337.00 281.06 C337.00,284.99 335.41,287.24 334.44,284.69 C334.13,283.91 334.02,280.86 334.19,277.92 L 334.50 272.58 L 339.76 272.26 C344.64,271.96 345.10,272.13 346.01,274.53 C347.34,278.03 347.27,284.72 345.89,285.57 C344.27,286.57 343.03,284.05 343.02,279.72 C343.01,277.28 342.46,275.73 341.49,275.36 C339.01,274.41 337.00,276.96 337.00,281.06 ZM 153.00 282.19 C153.00,285.77 152.19,286.86 150.67,285.33 C150.30,284.97 150.00,281.90 150.00,278.51 L 150.00 272.35 L 155.48 272.21 C162.02,272.04 163.28,273.50 162.80,280.71 C162.37,287.38 160.19,287.47 159.80,280.82 C159.56,276.51 159.14,275.45 157.57,275.15 C154.92,274.65 153.00,277.61 153.00,282.19 ZM 303.80 278.60 L 303.50 285.20 L 298.75 285.57 C294.63,285.89 293.80,285.62 292.44,283.55 C290.33,280.33 290.86,273.64 293.25,273.18 C294.71,272.91 295.00,273.61 295.00,277.46 C295.00,280.81 295.45,282.23 296.64,282.69 C298.97,283.59 301.00,280.38 301.00,275.81 C301.00,273.04 301.42,272.00 302.55,272.00 C303.81,272.00 304.04,273.19 303.80,278.60 ZM 99.19 280.00 C98.85,284.86 97.45,287.34 96.48,284.80 C96.15,283.95 96.02,280.84 96.19,277.88 L 96.50 272.50 L 101.00 272.25 C107.46,271.88 108.44,272.86 108.47,279.70 C108.49,284.20 108.16,285.50 107.00,285.50 C105.93,285.50 105.36,284.06 105.00,280.50 C104.55,275.97 104.27,275.50 102.00,275.50 C99.75,275.50 99.47,275.95 99.19,280.00 ZM 69.25 289.75 C67.51,291.08 67.20,291.13 65.25,290.34 C63.57,289.66 63.66,288.00 65.38,288.00 C66.14,288.00 67.28,287.36 67.93,286.59 C68.84,285.48 68.53,283.83 66.49,278.98 C65.06,275.57 64.12,272.54 64.42,272.25 C65.41,271.26 67.89,274.13 69.03,277.59 C70.38,281.69 71.53,281.31 72.44,276.46 C73.04,273.25 75.30,270.96 76.58,272.25 C77.42,273.08 70.99,288.42 69.25,289.75 ZM 221.19 280.00 C220.59,288.52 218.00,287.66 218.00,278.95 L 218.00 273.23 L 222.63 272.53 C229.33,271.53 230.64,273.41 230.14,283.33 C229.91,288.02 227.55,285.83 227.00,280.42 C226.55,275.97 226.26,275.50 224.00,275.50 C221.75,275.50 221.47,275.95 221.19,280.00 ZM 44.95 284.56 C43.39,286.44 38.59,286.41 37.00,284.50 C35.93,283.21 36.27,283.00 39.38,283.00 C43.87,283.00 44.02,281.81 39.75,279.93 C33.76,277.29 35.93,271.35 42.58,272.19 C46.24,272.65 46.01,274.45 42.25,274.81 C40.46,274.99 39.00,275.48 39.00,275.92 C39.00,276.35 40.46,277.13 42.25,277.64 C45.80,278.65 47.10,281.97 44.95,284.56 ZM 190.54 284.93 C188.35,288.48 183.00,283.90 183.00,278.48 C183.00,276.78 182.58,274.97 182.07,274.45 C181.50,273.86 181.88,272.60 183.08,271.13 L 185.02 268.75 L 187.63 271.36 C189.86,273.59 190.00,274.06 188.62,274.59 C187.52,275.01 187.00,276.43 187.00,278.99 C187.00,281.99 187.43,282.88 189.10,283.32 C190.26,283.62 190.90,284.35 190.54,284.93 ZM 408.47 285.05 C407.65,286.38 404.64,286.24 403.20,284.80 C402.54,284.14 402.00,281.67 402.00,279.30 C402.00,276.93 401.55,275.00 401.00,275.00 C400.45,275.00 400.00,274.33 400.00,273.50 C400.00,272.67 400.45,272.00 401.00,272.00 C401.55,272.00 402.00,271.33 402.00,270.50 C402.00,269.67 402.67,269.00 403.50,269.00 C404.33,269.00 405.00,269.67 405.00,270.50 C405.00,271.33 405.65,272.00 406.44,272.00 C408.84,272.00 409.35,274.10 407.10,274.68 C404.18,275.45 404.12,281.46 407.03,283.01 C408.14,283.61 408.79,284.53 408.47,285.05 ZM 120.00 284.50 C120.00,286.32 116.65,286.49 115.21,284.75 C114.64,284.06 113.86,281.70 113.46,279.50 C113.06,277.30 112.31,274.96 111.79,274.30 C111.14,273.48 111.53,272.35 112.98,270.80 C114.97,268.67 115.20,268.63 116.11,270.25 C116.66,271.21 117.75,272.00 118.55,272.00 C119.35,272.00 120.00,272.67 120.00,273.50 C120.00,274.33 119.35,275.00 118.56,275.00 C117.77,275.00 116.83,275.46 116.48,276.02 C115.45,277.70 117.04,283.00 118.58,283.00 C119.36,283.00 120.00,283.67 120.00,284.50 ZM 453.18 280.50 C452.86,284.63 451.87,286.54 450.68,285.35 C450.31,284.97 450.00,281.87 450.00,278.45 L 450.00 272.24 L 454.00 272.18 C458.46,272.12 459.40,273.91 455.75,275.51 C454.05,276.26 453.42,277.49 453.18,280.50 ZM 142.00 281.39 C142.00,284.80 140.92,286.59 139.64,285.31 C139.29,284.95 139.00,282.09 139.00,278.94 L 139.00 273.22 L 142.75 272.75 C144.81,272.49 146.68,272.44 146.91,272.63 C147.13,272.82 146.12,274.09 144.66,275.44 C142.76,277.20 142.00,278.90 142.00,281.39 ZM 287.00 276.44 C287.00,284.21 286.27,286.94 284.64,285.31 C284.29,284.95 284.00,280.92 284.00,276.33 C284.00,269.59 284.29,268.00 285.50,268.00 C286.71,268.00 287.00,269.60 287.00,276.44 ZM 253.00 275.86 C253.00,284.09 251.80,288.25 250.45,284.73 C249.39,281.97 250.46,267.68 251.75,267.25 C252.69,266.94 253.00,269.08 253.00,275.86 ZM 204.39 281.57 C204.69,282.36 205.80,283.00 206.85,283.00 C209.62,283.00 211.33,280.46 210.58,277.45 C210.05,275.36 209.42,274.93 207.22,275.19 C204.44,275.51 203.17,278.39 204.39,281.57 ZM 91.00 276.94 C91.00,284.26 90.25,286.92 88.64,285.31 C88.29,284.95 88.00,281.14 88.00,276.83 C88.00,270.54 88.29,269.00 89.50,269.00 C90.71,269.00 91.00,270.55 91.00,276.94 ZM 437.09 281.60 C437.77,282.42 439.26,282.96 440.41,282.80 C442.07,282.56 442.50,281.79 442.50,279.00 C442.50,275.78 442.26,275.50 439.50,275.50 C437.13,275.50 436.43,275.98 436.17,277.81 C435.99,279.07 436.40,280.78 437.09,281.60 ZM 32.00 279.00 C32.00,285.45 31.40,287.07 29.67,285.33 C29.30,284.97 29.00,281.82 29.00,278.33 C29.00,273.37 29.32,272.00 30.50,272.00 C31.69,272.00 32.00,273.44 32.00,279.00 ZM 17.25 277.23 C20.23,277.71 22.17,276.16 21.80,273.59 C21.58,272.04 20.66,271.42 18.25,271.19 C15.24,270.90 15.00,271.09 15.00,273.87 C15.00,276.20 15.50,276.94 17.25,277.23 ZM 197.00 278.44 C197.00,284.43 196.17,286.84 194.64,285.31 C194.29,284.95 194.00,281.82 194.00,278.33 C194.00,273.37 194.32,272.00 195.50,272.00 C196.68,272.00 197.00,273.38 197.00,278.44 ZM 354.00 278.44 C354.00,284.43 353.17,286.84 351.64,285.31 C351.29,284.95 351.00,281.82 351.00,278.33 C351.00,273.37 351.32,272.00 352.50,272.00 C353.68,272.00 354.00,273.38 354.00,278.44 ZM 126.69 277.36 C127.98,278.65 132.00,278.00 132.00,276.50 C132.00,275.58 131.06,275.00 129.56,275.00 C127.05,275.00 125.56,276.23 126.69,277.36 ZM 270.56 278.09 C270.87,278.59 271.80,279.00 272.63,279.00 C274.39,279.00 274.16,274.87 272.37,274.29 C271.08,273.86 269.71,276.73 270.56,278.09 ZM 53.63 283.30 C54.45,284.12 58.00,282.22 58.00,280.96 C58.00,280.43 56.88,280.00 55.50,280.00 C53.17,280.00 52.14,281.81 53.63,283.30 ZM 238.14 282.67 C238.99,283.69 239.60,283.75 240.63,282.89 C242.55,281.30 242.34,280.00 240.17,280.00 C237.62,280.00 236.81,281.07 238.14,282.67 ZM 170.00 281.57 C170.00,282.61 170.73,283.03 172.17,282.82 C175.37,282.35 175.72,280.00 172.58,280.00 C170.90,280.00 170.00,280.55 170.00,281.57 ZM 388.22 276.83 C387.92,277.75 388.58,278.06 390.42,277.83 C391.87,277.65 393.05,277.05 393.03,276.50 C392.98,275.00 388.74,275.29 388.22,276.83 ZM 32.00 268.50 C32.00,270.06 30.82,270.48 29.67,269.33 C28.52,268.18 28.94,267.00 30.50,267.00 C31.33,267.00 32.00,267.67 32.00,268.50 ZM 354.00 267.94 C354.00,269.20 352.44,270.11 351.64,269.31 C350.51,268.18 350.95,267.00 352.50,267.00 C353.33,267.00 354.00,267.42 354.00,267.94 Z" fill="rgb(29,121,238)"/>
<path d="M 197.00 268.00 C197.00,269.10 196.35,270.00 195.56,270.00 C193.79,270.00 192.66,268.35 193.50,267.00 C194.59,265.24 197.00,265.93 197.00,268.00 ZM 419.48 273.65 C419.02,274.40 418.57,275.44 418.16,276.76 C417.42,279.09 416.46,281.00 416.04,281.00 C415.61,281.00 415.02,279.16 414.72,276.92 C414.56,275.75 414.40,274.80 414.22,274.07 C414.42,274.81 414.73,275.77 415.08,276.68 L 416.17 279.50 L 418.11 275.75 C418.54,274.92 419.01,274.21 419.48,273.65 ZM 428.48 273.98 C427.98,274.72 427.48,275.80 427.12,277.00 C426.46,279.20 425.54,281.00 425.07,281.00 C424.61,281.00 423.92,278.95 423.54,276.44 C423.50,276.17 423.46,275.91 423.41,275.67 C423.65,276.32 423.99,276.97 424.35,277.46 C425.61,279.19 425.78,279.11 427.09,276.15 C427.48,275.27 427.98,274.53 428.48,273.98 ZM 414.14 273.74 C413.63,271.87 412.99,271.61 412.01,272.59 C411.51,273.09 411.76,275.31 412.36,277.76 C411.70,275.43 411.31,273.31 411.61,272.83 C412.30,271.70 414.00,271.78 414.00,272.93 C414.00,273.10 414.05,273.38 414.14,273.74 ZM 423.02 274.13 C422.59,272.85 422.02,272.17 421.39,272.11 C422.32,271.79 423.00,272.29 423.00,273.81 C423.00,273.91 423.01,274.02 423.02,274.13 ZM 429.12 280.40 C431.18,274.53 431.34,273.11 429.84,273.01 C430.51,272.79 430.99,273.15 430.92,274.25 C430.83,275.73 430.06,278.17 429.12,280.40 ZM 425.17 285.19 C425.66,285.43 426.15,285.36 426.64,284.98 C426.36,285.31 426.11,285.50 425.91,285.50 C425.70,285.50 425.44,285.39 425.17,285.19 Z" fill="rgb(118,168,236)"/>
<path d="M 54.57 156.56 C55.44,159.11 56.00,161.33 55.82,161.50 C54.84,162.45 46.96,157.01 40.64,151.01 C27.55,138.57 21.60,122.31 23.95,105.39 C25.63,93.34 30.32,83.09 38.01,74.68 L 43.12 69.09 L 47.39 73.54 C51.32,77.64 52.05,78.00 56.58,77.98 C63.08,77.96 68.61,74.78 72.68,68.72 C77.42,61.66 78.51,54.84 77.05,41.50 C75.75,29.62 76.48,21.54 79.60,13.38 C81.71,7.84 83.00,7.79 83.00,13.25 C83.00,19.30 87.50,28.11 95.38,37.52 C105.33,49.40 107.05,53.54 108.56,69.31 C110.01,84.39 111.51,88.76 116.56,92.61 C120.78,95.83 129.20,96.99 134.00,95.00 C137.91,93.38 142.92,87.63 143.67,83.92 C143.99,82.31 144.58,81.00 144.99,81.00 C145.39,81.00 147.30,84.49 149.24,88.75 C158.18,108.47 156.45,128.72 144.41,145.13 C139.79,151.42 126.64,161.92 126.19,159.67 C126.01,158.81 126.35,157.21 126.94,156.12 C128.58,153.04 128.24,139.63 126.39,135.02 C125.51,132.81 124.55,131.00 124.27,131.00 C123.99,131.00 122.23,132.35 120.35,134.00 C114.16,139.44 105.67,137.25 102.38,129.36 C101.62,127.55 101.00,123.34 101.00,120.00 C101.00,112.61 99.57,109.14 93.57,102.00 C91.03,98.97 88.43,94.78 87.80,92.68 C86.66,88.91 86.63,88.89 85.34,91.18 C84.38,92.90 84.20,96.37 84.66,104.56 C85.36,117.25 84.04,121.74 78.58,125.17 C74.88,127.49 68.88,127.10 65.81,124.33 C63.82,122.53 63.71,122.58 59.97,126.79 C53.29,134.31 51.11,146.35 54.57,156.56 ZM 105.24 173.38 C101.91,175.73 99.94,176.32 94.34,176.60 C90.58,176.79 86.00,176.48 84.18,175.92 C79.75,174.57 72.40,167.10 71.51,163.04 C70.42,158.10 71.83,151.36 74.64,148.01 C76.87,145.36 77.33,145.19 78.65,146.51 C80.89,148.74 83.61,148.31 85.93,145.37 C87.51,143.36 88.00,141.27 88.02,136.62 C88.04,127.67 88.95,127.23 93.35,134.02 C96.04,138.17 97.39,141.59 97.93,145.61 C99.05,153.81 102.96,156.18 108.36,151.93 L 111.00 149.86 L 112.00 152.49 C114.85,159.99 112.08,168.52 105.24,173.38 Z" fill="rgb(242,79,28)"/>
<path d="M 0.00 150.50 L 0.00 0.00 L 243.00 0.00 L 486.00 0.00 L 486.00 150.50 L 486.00 301.00 L 243.00 301.00 L 0.00 301.00 L 0.00 150.50 ZM 69.25 289.75 C70.99,288.42 77.42,273.08 76.58,272.25 C75.30,270.96 73.04,273.25 72.44,276.46 C71.53,281.31 70.38,281.69 69.03,277.59 C67.89,274.13 65.41,271.26 64.42,272.25 C64.12,272.54 65.06,275.57 66.49,278.98 C68.53,283.83 68.84,285.48 67.93,286.59 C67.28,287.36 66.14,288.00 65.38,288.00 C63.66,288.00 63.57,289.66 65.25,290.34 C67.20,291.13 67.51,291.08 69.25,289.75 ZM 15.00 283.00 C15.00,280.24 15.28,280.00 18.50,280.00 C23.13,280.00 25.84,277.29 25.25,273.27 C24.78,270.03 21.81,268.00 17.53,268.00 C12.43,268.00 12.00,268.70 12.00,276.94 C12.00,281.19 12.30,284.97 12.67,285.33 C14.10,286.77 15.00,285.87 15.00,283.00 ZM 32.00 279.00 C32.00,273.44 31.69,272.00 30.50,272.00 C29.32,272.00 29.00,273.37 29.00,278.33 C29.00,281.82 29.30,284.97 29.67,285.33 C31.40,287.07 32.00,285.45 32.00,279.00 ZM 44.95 284.56 C47.10,281.97 45.80,278.65 42.25,277.64 C40.46,277.13 39.00,276.35 39.00,275.92 C39.00,275.48 40.46,274.99 42.25,274.81 C46.01,274.45 46.24,272.65 42.58,272.19 C35.93,271.35 33.76,277.29 39.75,279.93 C44.02,281.81 43.87,283.00 39.38,283.00 C36.27,283.00 35.93,283.21 37.00,284.50 C38.59,286.41 43.39,286.44 44.95,284.56 ZM 56.53 284.95 C56.97,284.23 57.62,284.27 58.58,285.06 C60.50,286.66 61.20,284.57 60.81,278.39 C60.54,274.19 60.15,273.42 57.89,272.63 C54.77,271.53 49.70,272.60 50.24,274.23 C50.46,274.87 51.95,275.42 53.57,275.45 C57.35,275.52 57.92,277.40 54.28,277.84 C49.20,278.46 47.54,281.40 50.57,284.43 C52.37,286.22 55.57,286.50 56.53,284.95 ZM 91.00 276.94 C91.00,270.55 90.71,269.00 89.50,269.00 C88.29,269.00 88.00,270.54 88.00,276.83 C88.00,281.14 88.29,284.95 88.64,285.31 C90.25,286.92 91.00,284.26 91.00,276.94 ZM 99.19 280.00 C99.47,275.95 99.75,275.50 102.00,275.50 C104.27,275.50 104.55,275.97 105.00,280.50 C105.36,284.06 105.93,285.50 107.00,285.50 C108.16,285.50 108.49,284.20 108.47,279.70 C108.44,272.86 107.46,271.88 101.00,272.25 L 96.50 272.50 L 96.19 277.88 C96.02,280.84 96.15,283.95 96.48,284.80 C97.45,287.34 98.85,284.86 99.19,280.00 ZM 120.00 284.50 C120.00,283.67 119.36,283.00 118.58,283.00 C117.04,283.00 115.45,277.70 116.48,276.02 C116.83,275.46 117.77,275.00 118.56,275.00 C119.35,275.00 120.00,274.33 120.00,273.50 C120.00,272.67 119.35,272.00 118.55,272.00 C117.75,272.00 116.66,271.21 116.11,270.25 C115.20,268.63 114.97,268.67 112.98,270.80 C111.53,272.35 111.14,273.48 111.79,274.30 C112.31,274.96 113.06,277.30 113.46,279.50 C113.86,281.70 114.64,284.06 115.21,284.75 C116.65,286.49 120.00,286.32 120.00,284.50 ZM 133.56 284.53 C135.38,283.15 135.28,283.06 131.87,283.03 C129.88,283.01 127.68,282.33 127.00,281.50 C125.92,280.20 126.39,280.00 130.41,280.00 C135.82,280.00 137.10,278.32 134.59,274.49 C131.35,269.55 123.00,272.57 123.00,278.69 C123.00,281.96 126.58,286.00 129.48,286.00 C130.66,286.00 132.49,285.34 133.56,284.53 ZM 142.00 281.39 C142.00,278.90 142.76,277.20 144.66,275.44 C146.12,274.09 147.13,272.82 146.91,272.63 C146.68,272.44 144.81,272.49 142.75,272.75 L 139.00 273.22 L 139.00 278.94 C139.00,282.09 139.29,284.95 139.64,285.31 C140.92,286.59 142.00,284.80 142.00,281.39 ZM 153.00 282.19 C153.00,277.61 154.92,274.65 157.57,275.15 C159.14,275.45 159.56,276.51 159.80,280.82 C160.19,287.47 162.37,287.38 162.80,280.71 C163.28,273.50 162.02,272.04 155.48,272.21 L 150.00 272.35 L 150.00 278.51 C150.00,281.90 150.30,284.97 150.67,285.33 C152.19,286.86 153.00,285.77 153.00,282.19 ZM 177.99 279.95 C178.00,276.90 177.46,273.86 176.80,273.20 C175.15,271.55 170.79,271.69 168.44,273.47 C166.38,275.03 166.88,275.32 171.15,275.04 C172.61,274.95 174.10,275.35 174.46,275.94 C175.15,277.05 174.48,277.40 169.71,278.45 C163.05,279.91 166.33,286.02 173.60,285.70 L 177.99 285.50 L 177.99 279.95 ZM 190.54 284.93 C190.90,284.35 190.26,283.62 189.10,283.32 C187.43,282.88 187.00,281.99 187.00,278.99 C187.00,276.43 187.52,275.01 188.62,274.59 C190.00,274.06 189.86,273.59 187.63,271.36 L 185.02 268.75 L 183.08 271.13 C181.88,272.60 181.50,273.86 182.07,274.45 C182.58,274.97 183.00,276.78 183.00,278.48 C183.00,283.90 188.35,288.48 190.54,284.93 ZM 197.00 278.44 C197.00,273.38 196.68,272.00 195.50,272.00 C194.32,272.00 194.00,273.37 194.00,278.33 C194.00,281.82 194.29,284.95 194.64,285.31 C196.17,286.84 197.00,284.43 197.00,278.44 ZM 212.00 284.00 C213.23,282.77 214.00,280.67 214.00,278.52 C214.00,271.98 205.75,269.74 201.70,275.19 C199.94,277.56 199.85,278.24 200.98,280.96 C203.16,286.21 208.36,287.64 212.00,284.00 ZM 221.19 280.00 C221.47,275.95 221.75,275.50 224.00,275.50 C226.26,275.50 226.55,275.97 227.00,280.42 C227.55,285.83 229.91,288.02 230.14,283.33 C230.64,273.41 229.33,271.53 222.63,272.53 L 218.00 273.23 L 218.00 278.95 C218.00,287.66 220.59,288.52 221.19,280.00 ZM 245.80 280.24 C246.01,276.66 245.64,274.78 244.48,273.62 C241.91,271.06 235.00,271.73 235.00,274.54 C235.00,275.52 235.98,275.72 238.63,275.28 C241.48,274.82 242.17,275.00 241.81,276.10 C241.55,276.87 240.25,277.66 238.92,277.85 C235.76,278.30 234.00,279.81 234.00,282.07 C234.00,284.65 236.83,285.97 241.50,285.58 L 245.50 285.24 L 245.80 280.24 ZM 253.00 275.86 C253.00,269.08 252.69,266.94 251.75,267.25 C250.46,267.68 249.39,281.97 250.45,284.73 C251.80,288.25 253.00,284.09 253.00,275.86 ZM 267.00 284.00 C268.58,281.05 275.22,281.21 277.28,284.25 C278.41,285.91 279.11,286.21 279.96,285.39 C280.83,284.56 280.31,282.44 277.89,276.89 C273.93,267.84 273.70,267.56 271.26,268.86 C269.32,269.90 262.78,284.45 263.80,285.47 C264.83,286.49 265.94,285.98 267.00,284.00 ZM 287.00 276.44 C287.00,269.60 286.71,268.00 285.50,268.00 C284.29,268.00 284.00,269.59 284.00,276.33 C284.00,280.92 284.29,284.95 284.64,285.31 C286.27,286.94 287.00,284.21 287.00,276.44 ZM 303.80 278.60 C304.04,273.19 303.81,272.00 302.55,272.00 C301.42,272.00 301.00,273.04 301.00,275.81 C301.00,280.38 298.97,283.59 296.64,282.69 C295.45,282.23 295.00,280.81 295.00,277.46 C295.00,273.61 294.71,272.91 293.25,273.18 C290.86,273.64 290.33,280.33 292.44,283.55 C293.80,285.62 294.63,285.89 298.75,285.57 L 303.50 285.20 L 303.80 278.60 ZM 312.00 280.41 C312.00,277.18 312.46,275.76 313.64,275.31 C315.99,274.41 318.00,277.63 318.00,282.27 C318.00,287.97 320.38,286.50 321.00,280.42 C321.41,276.36 321.87,275.45 323.62,275.20 C325.97,274.86 326.96,277.11 326.99,282.83 C327.00,285.05 327.42,286.03 328.25,285.76 C329.65,285.30 330.45,278.93 329.55,275.36 C328.86,272.61 325.07,271.36 322.15,272.92 C320.88,273.60 319.90,273.65 319.53,273.04 C319.20,272.51 316.70,272.18 313.97,272.29 L 309.00 272.50 L 309.00 278.58 C309.00,281.93 309.29,284.95 309.64,285.31 C311.03,286.69 312.00,284.67 312.00,280.41 ZM 337.00 281.06 C337.00,276.96 339.01,274.41 341.49,275.36 C342.46,275.73 343.01,277.28 343.02,279.72 C343.03,284.05 344.27,286.57 345.89,285.57 C347.27,284.72 347.34,278.03 346.01,274.53 C345.10,272.13 344.64,271.96 339.76,272.26 L 334.50 272.58 L 334.19 277.92 C334.02,280.86 334.13,283.91 334.44,284.69 C335.41,287.24 337.00,284.99 337.00,281.06 ZM 354.00 278.44 C354.00,273.38 353.68,272.00 352.50,272.00 C351.32,272.00 351.00,273.37 351.00,278.33 C351.00,281.82 351.29,284.95 351.64,285.31 C353.17,286.84 354.00,284.43 354.00,278.44 ZM 370.00 280.47 L 370.50 275.60 L 374.84 280.80 C377.23,283.66 379.60,285.75 380.09,285.44 C380.59,285.13 381.00,281.31 381.00,276.94 C381.00,270.55 380.71,269.00 379.50,269.00 C378.42,269.00 378.00,270.11 378.00,273.00 C378.00,275.20 377.58,277.00 377.06,277.00 C376.55,277.00 374.86,275.20 373.31,272.99 C369.27,267.24 366.61,267.80 366.19,274.50 C365.51,285.18 368.96,290.58 370.00,280.47 ZM 395.56 284.53 C397.38,283.15 397.28,283.06 393.87,283.03 C391.88,283.01 389.68,282.33 389.00,281.50 C387.92,280.20 388.38,280.00 392.32,280.00 C397.70,280.00 398.77,278.83 396.53,275.40 C394.44,272.21 392.44,271.46 389.15,272.61 C385.66,273.84 383.87,277.52 385.13,280.90 C386.95,285.82 391.68,287.47 395.56,284.53 ZM 408.47 285.05 C408.79,284.53 408.14,283.61 407.03,283.01 C404.12,281.46 404.18,275.45 407.10,274.68 C409.35,274.10 408.84,272.00 406.44,272.00 C405.65,272.00 405.00,271.33 405.00,270.50 C405.00,269.67 404.33,269.00 403.50,269.00 C402.67,269.00 402.00,269.67 402.00,270.50 C402.00,271.33 401.55,272.00 401.00,272.00 C400.45,272.00 400.00,272.67 400.00,273.50 C400.00,274.33 400.45,275.00 401.00,275.00 C401.55,275.00 402.00,276.93 402.00,279.30 C402.00,281.67 402.54,284.14 403.20,284.80 C404.64,286.24 407.65,286.38 408.47,285.05 ZM 419.00 282.50 C419.64,280.58 420.46,279.01 420.83,279.02 C421.20,279.03 422.17,280.50 423.00,282.27 C423.83,284.05 425.14,285.50 425.91,285.50 C427.17,285.50 430.72,277.54 430.92,274.25 C431.08,271.77 428.46,273.07 427.09,276.15 C425.78,279.11 425.61,279.19 424.35,277.46 C423.61,276.45 423.00,274.80 423.00,273.81 C423.00,270.70 420.13,271.83 418.11,275.75 L 416.17 279.50 L 415.08 276.68 C414.49,275.14 414.00,273.45 414.00,272.93 C414.00,271.78 412.30,271.70 411.61,272.83 C410.96,273.88 413.62,282.83 415.12,284.64 C416.88,286.76 417.75,286.28 419.00,282.50 ZM 444.09 284.13 C445.77,282.76 446.38,281.29 446.30,278.70 C446.17,273.98 445.57,273.20 441.46,272.43 C436.48,271.49 433.00,273.97 433.00,278.45 C433.00,280.94 433.71,282.41 435.63,283.93 C438.90,286.49 441.10,286.55 444.09,284.13 ZM 453.18 280.50 C453.42,277.49 454.05,276.26 455.75,275.51 C459.40,273.91 458.46,272.12 454.00,272.18 L 450.00 272.24 L 450.00 278.45 C450.00,281.87 450.31,284.97 450.68,285.35 C451.87,286.54 452.86,284.63 453.18,280.50 ZM 463.02 284.25 C463.02,283.29 463.46,281.83 463.98,281.00 C464.77,279.76 465.43,280.09 467.79,282.92 C471.70,287.59 474.02,286.21 470.35,281.39 L 467.69 277.91 L 469.88 274.95 C472.49,271.42 470.70,270.88 466.73,274.00 C465.33,275.10 464.03,276.00 463.84,276.00 C463.65,276.00 463.38,274.34 463.24,272.32 C462.94,268.15 462.58,267.52 461.07,268.46 C459.91,269.17 459.55,284.22 460.67,285.33 C461.88,286.54 463.00,286.03 463.02,284.25 ZM 32.00 268.50 C32.00,267.67 31.33,267.00 30.50,267.00 C28.94,267.00 28.52,268.18 29.67,269.33 C30.82,270.48 32.00,270.06 32.00,268.50 ZM 197.00 268.00 C197.00,265.93 194.59,265.24 193.50,267.00 C192.66,268.35 193.79,270.00 195.56,270.00 C196.35,270.00 197.00,269.10 197.00,268.00 ZM 354.00 267.94 C354.00,267.42 353.33,267.00 352.50,267.00 C350.95,267.00 350.51,268.18 351.64,269.31 C352.44,270.11 354.00,269.20 354.00,267.94 ZM 155.32 253.97 C166.45,250.76 172.14,238.09 166.73,228.57 C164.00,223.78 159.45,221.33 144.37,216.55 C135.53,213.74 132.88,212.47 131.49,210.34 C129.32,207.04 130.29,203.60 134.21,200.69 C137.97,197.89 149.43,197.93 156.77,200.78 L 162.04 202.82 L 163.39 200.16 C166.39,194.26 166.32,193.24 162.80,191.61 C156.80,188.84 150.09,187.73 142.71,188.29 C132.92,189.04 128.55,190.51 124.05,194.58 C119.06,199.08 117.65,202.71 118.21,209.54 C118.97,218.66 125.08,223.30 141.94,227.54 C151.03,229.82 155.83,232.48 156.63,235.67 C157.40,238.72 156.43,240.59 152.63,243.43 C150.46,245.05 148.47,245.44 142.71,245.38 C135.92,245.31 132.86,244.45 121.24,239.33 C119.78,238.69 116.60,245.50 117.39,247.57 C118.16,249.58 125.50,253.00 132.39,254.57 C138.92,256.06 148.98,255.80 155.32,253.97 ZM 23.79 245.90 L 24.07 237.30 L 35.05 236.72 C46.72,236.10 54.66,233.53 59.84,228.69 C65.50,223.41 67.93,213.70 65.60,205.68 C63.57,198.72 60.97,195.54 54.65,192.28 C49.74,189.75 48.64,189.61 30.75,189.20 L 12.00 188.76 L 12.00 221.93 L 12.00 255.10 L 17.75 254.80 L 23.50 254.50 L 23.79 245.90 ZM 98.77 228.32 L 99.03 202.14 L 103.02 198.99 C107.49,195.44 107.74,194.46 105.25,190.09 L 103.50 187.01 L 91.90 187.01 L 80.30 187.00 L 78.48 191.04 L 76.66 195.07 L 80.08 198.00 C81.96,199.60 83.84,200.94 84.25,200.96 C84.66,200.98 85.00,212.85 85.00,227.33 C85.00,241.82 85.32,253.99 85.71,254.38 C86.10,254.77 89.14,254.95 92.46,254.79 L 98.50 254.50 L 98.77 228.32 ZM 189.46 247.50 C191.13,243.65 192.94,240.17 193.49,239.77 C194.05,239.36 201.39,239.02 209.81,239.02 L 225.11 239.00 L 227.59 244.75 C232.16,255.35 231.83,255.00 237.11,255.00 C239.73,255.00 242.12,254.62 242.40,254.16 C242.90,253.36 239.20,244.38 222.77,206.50 L 215.40 189.50 L 209.37 189.21 L 203.34 188.91 L 200.05 196.21 C198.24,200.22 193.94,210.02 190.51,218.00 C187.07,225.98 183.11,234.98 181.71,238.02 C178.97,243.93 175.00,253.74 175.00,254.59 C175.00,254.87 177.57,254.96 180.71,254.80 L 186.43 254.50 L 189.46 247.50 ZM 278.00 242.50 L 278.50 230.50 L 284.61 220.50 C291.05,209.95 302.27,191.02 302.83,189.75 C303.02,189.34 300.52,189.00 297.28,189.00 L 291.40 189.00 L 286.83 196.75 C284.31,201.01 280.13,208.21 277.53,212.75 C274.94,217.29 272.66,221.00 272.48,221.00 C272.10,221.00 268.13,214.40 259.40,199.28 L 253.50 189.05 L 247.75 189.03 C243.96,189.01 242.00,189.41 242.00,190.19 C242.00,190.84 243.75,194.33 245.89,197.94 C248.03,201.55 253.43,210.69 257.89,218.25 L 266.00 232.00 L 266.00 243.55 L 266.00 255.10 L 271.75 254.80 L 277.50 254.50 L 278.00 242.50 ZM 326.00 221.95 L 326.00 188.90 L 320.25 189.20 L 314.50 189.50 L 314.24 220.99 C314.09,238.31 314.19,253.05 314.45,253.74 C314.76,254.54 316.94,255.00 320.47,255.00 L 326.00 255.00 L 326.00 221.95 ZM 350.56 247.75 C352.14,243.76 353.77,240.26 354.18,239.96 C354.59,239.67 361.65,239.30 369.86,239.14 C381.25,238.92 385.07,239.17 385.99,240.18 C386.64,240.91 388.39,244.43 389.87,248.00 L 392.55 254.50 L 397.42 254.81 C400.09,254.98 402.65,254.75 403.11,254.29 C404.02,253.38 401.27,246.48 386.27,212.00 L 376.48 189.50 L 370.42 189.21 L 364.35 188.91 L 360.75 197.21 C358.76,201.77 353.78,213.15 349.68,222.50 C338.06,249.01 336.12,253.79 336.75,254.41 C337.07,254.74 339.66,255.00 342.51,255.00 L 347.68 255.00 L 350.56 247.75 ZM 424.75 253.75 C425.35,252.99 425.61,245.64 425.40,235.00 C425.00,215.30 425.41,211.26 427.58,213.07 C428.36,213.71 435.82,223.43 444.17,234.66 L 459.35 255.10 L 463.93 254.80 L 468.50 254.50 L 468.76 221.75 L 469.03 189.00 L 463.01 189.00 L 457.00 189.00 L 457.00 209.50 C457.00,222.17 456.63,230.00 456.02,230.00 C455.49,230.00 450.56,224.04 445.07,216.75 C422.07,186.22 425.19,189.54 419.25,189.20 L 414.00 188.90 L 414.00 221.95 L 414.00 255.00 L 418.88 255.00 C421.58,255.00 424.20,254.44 424.75,253.75 ZM 105.24 173.38 C112.08,168.52 114.85,159.99 112.00,152.49 L 111.00 149.86 L 108.36 151.93 C102.96,156.18 99.05,153.81 97.93,145.61 C97.39,141.59 96.04,138.17 93.35,134.02 C88.95,127.23 88.04,127.67 88.02,136.62 C88.00,141.27 87.51,143.36 85.93,145.37 C83.61,148.31 80.89,148.74 78.65,146.51 C77.33,145.19 76.87,145.36 74.64,148.01 C71.83,151.36 70.42,158.10 71.51,163.04 C72.40,167.10 79.75,174.57 84.18,175.92 C86.00,176.48 90.58,176.79 94.34,176.60 C99.94,176.32 101.91,175.73 105.24,173.38 ZM 54.57 156.56 C51.11,146.35 53.29,134.31 59.97,126.79 C63.71,122.58 63.82,122.53 65.81,124.33 C68.88,127.10 74.88,127.49 78.58,125.17 C84.04,121.74 85.36,117.25 84.66,104.56 C84.20,96.37 84.38,92.90 85.34,91.18 C86.63,88.89 86.66,88.91 87.80,92.68 C88.43,94.78 91.03,98.97 93.57,102.00 C99.57,109.14 101.00,112.61 101.00,120.00 C101.00,123.34 101.62,127.55 102.38,129.36 C105.67,137.25 114.16,139.44 120.35,134.00 C122.23,132.35 123.99,131.00 124.27,131.00 C124.55,131.00 125.51,132.81 126.39,135.02 C128.24,139.63 128.58,153.04 126.94,156.12 C126.35,157.21 126.01,158.81 126.19,159.67 C126.64,161.92 139.79,151.42 144.41,145.13 C156.45,128.72 158.18,108.47 149.24,88.75 C147.30,84.49 145.39,81.00 144.99,81.00 C144.58,81.00 143.99,82.31 143.67,83.92 C142.92,87.63 137.91,93.38 134.00,95.00 C129.20,96.99 120.78,95.83 116.56,92.61 C111.51,88.76 110.01,84.39 108.56,69.31 C107.05,53.54 105.33,49.40 95.38,37.52 C87.50,28.11 83.00,19.30 83.00,13.25 C83.00,7.79 81.71,7.84 79.60,13.38 C76.48,21.54 75.75,29.62 77.05,41.50 C78.51,54.84 77.42,61.66 72.68,68.72 C68.61,74.78 63.08,77.96 56.58,77.98 C52.05,78.00 51.32,77.64 47.39,73.54 L 43.12 69.09 L 38.01 74.68 C30.32,83.09 25.63,93.34 23.95,105.39 C21.60,122.31 27.55,138.57 40.64,151.01 C46.96,157.01 54.84,162.45 55.82,161.50 C56.00,161.33 55.44,159.11 54.57,156.56 ZM 17.25 277.23 C15.50,276.94 15.00,276.20 15.00,273.87 C15.00,271.09 15.24,270.90 18.25,271.19 C20.66,271.42 21.58,272.04 21.80,273.59 C22.17,276.16 20.23,277.71 17.25,277.23 ZM 53.63 283.30 C52.14,281.81 53.17,280.00 55.50,280.00 C56.88,280.00 58.00,280.43 58.00,280.96 C58.00,282.22 54.45,284.12 53.63,283.30 ZM 126.69 277.36 C125.56,276.23 127.05,275.00 129.56,275.00 C131.06,275.00 132.00,275.58 132.00,276.50 C132.00,278.00 127.98,278.65 126.69,277.36 ZM 170.00 281.57 C170.00,280.55 170.90,280.00 172.58,280.00 C175.72,280.00 175.37,282.35 172.17,282.82 C170.73,283.03 170.00,282.61 170.00,281.57 ZM 204.39 281.57 C203.17,278.39 204.44,275.51 207.22,275.19 C209.42,274.93 210.05,275.36 210.58,277.45 C211.33,280.46 209.62,283.00 206.85,283.00 C205.80,283.00 204.69,282.36 204.39,281.57 ZM 238.14 282.67 C236.81,281.07 237.62,280.00 240.17,280.00 C242.34,280.00 242.55,281.30 240.63,282.89 C239.60,283.75 238.99,283.69 238.14,282.67 ZM 270.56 278.09 C269.71,276.73 271.08,273.86 272.37,274.29 C274.16,274.87 274.39,279.00 272.63,279.00 C271.80,279.00 270.87,278.59 270.56,278.09 ZM 388.22 276.83 C388.74,275.29 392.98,275.00 393.03,276.50 C393.05,277.05 391.87,277.65 390.42,277.83 C388.58,278.06 387.92,277.75 388.22,276.83 ZM 437.09 281.60 C436.40,280.78 435.99,279.07 436.17,277.81 C436.43,275.98 437.13,275.50 439.50,275.50 C442.26,275.50 442.50,275.78 442.50,279.00 C442.50,281.79 442.07,282.56 440.41,282.80 C439.26,282.96 437.77,282.42 437.09,281.60 ZM 24.67 225.33 C24.30,224.97 24.00,219.12 24.00,212.33 L 24.00 200.00 L 34.03 200.00 C49.10,200.00 54.00,202.89 54.00,211.79 C54.00,218.80 50.74,223.14 44.11,224.99 C40.07,226.11 25.70,226.36 24.67,225.33 ZM 198.00 228.75 C198.00,226.75 208.21,202.00 209.03,202.00 C209.44,202.00 211.72,206.84 214.09,212.75 C216.46,218.66 218.96,224.59 219.65,225.93 C220.34,227.26 220.67,228.73 220.39,229.18 C220.11,229.63 214.96,230.00 208.94,230.00 C200.86,230.00 198.00,229.67 198.00,228.75 ZM 359.00 228.55 C359.00,226.55 369.11,202.00 369.94,202.00 C370.95,202.00 382.00,228.19 381.40,229.16 C381.12,229.62 375.96,230.00 369.94,230.00 C361.06,230.00 359.00,229.73 359.00,228.55 Z" fill="rgb(252,250,233)"/>
</g>
</svg>